  0
SECTION
  2
HEADER
  9
$ACADVER
  1
AC1009
  9
$DWGCODEPAGE
  3
ansi_1252
  9
$INSBASE
 10
0.0
 20
0.0
 30
0.0
  9
$EXTMIN
 10
16.12601838248889
 20
11.36680287037268
 30
0.0
  9
$EXTMAX
 10
302.0724029303652
 20
228.9218039886589
 30
0.0
  9
$LIMMIN
 10
0.0
 20
0.0
  9
$LIMMAX
 10
420.0
 20
297.0
  9
$ORTHOMODE
 70
     0
  9
$REGENMODE
 70
     1
  9
$FILLMODE
 70
     1
  9
$QTEXTMODE
 70
     0
  9
$MIRRTEXT
 70
     0
  9
$DRAGMODE
 70
     2
  9
$LTSCALE
 40
1.0
  9
$OSMODE
 70
   511
  9
$ATTMODE
 70
     1
  9
$TEXTSIZE
 40
2.5
  9
$TRACEWID
 40
1.0
  9
$TEXTSTYLE
  7
STANDARD
  9
$CLAYER
  8
0
  9
$CELTYPE
  6
BYLAYER
  9
$CECOLOR
 62
   256
  9
$DIMSCALE
 40
1.0
  9
$DIMASZ
 40
2.5
  9
$DIMEXO
 40
0.625
  9
$DIMDLI
 40
3.75
  9
$DIMRND
 40
0.0
  9
$DIMDLE
 40
0.0
  9
$DIMEXE
 40
1.25
  9
$DIMTP
 40
0.0
  9
$DIMTM
 40
0.0
  9
$DIMTXT
 40
2.5
  9
$DIMCEN
 40
2.5
  9
$DIMTSZ
 40
0.0
  9
$DIMTOL
 70
     0
  9
$DIMLIM
 70
     0
  9
$DIMTIH
 70
     0
  9
$DIMTOH
 70
     0
  9
$DIMSE1
 70
     0
  9
$DIMSE2
 70
     0
  9
$DIMTAD
 70
     1
  9
$DIMZIN
 70
     8
  9
$DIMBLK
  1

  9
$DIMASO
 70
     1
  9
$DIMSHO
 70
     1
  9
$DIMPOST
  1

  9
$DIMAPOST
  1

  9
$DIMALT
 70
     0
  9
$DIMALTD
 70
     3
  9
$DIMALTF
 40
0.03937007874016
  9
$DIMLFAC
 40
1.0
  9
$DIMTOFL
 70
     1
  9
$DIMTVP
 40
0.0
  9
$DIMTIX
 70
     0
  9
$DIMSOXD
 70
     0
  9
$DIMSAH
 70
     0
  9
$DIMBLK1
  1

  9
$DIMBLK2
  1

  9
$DIMSTYLE
  2
ISO-25
  9
$DIMCLRD
 70
     0
  9
$DIMCLRE
 70
     0
  9
$DIMCLRT
 70
     0
  9
$DIMTFAC
 40
1.0
  9
$DIMGAP
 40
0.625
  9
$LUNITS
 70
     2
  9
$LUPREC
 70
     3
  9
$SKETCHINC
 40
1.0
  9
$FILLETRAD
 40
10.0
  9
$AUNITS
 70
     0
  9
$AUPREC
 70
     0
  9
$MENU
  1
.
  9
$ELEVATION
 40
0.0
  9
$PELEVATION
 40
0.0
  9
$THICKNESS
 40
0.0
  9
$LIMCHECK
 70
     0
  9
$CHAMFERA
 40
10.0
  9
$CHAMFERB
 40
10.0
  9
$SKPOLY
 70
     0
  9
$TDCREATE
 40
2455022.42902618
  9
$TDUPDATE
 40
2457082.471579699
  9
$TDINDWG
 40
0.16307125
  9
$TDUSRTIMER
 40
2457082.678271528
  9
$USRTIMER
 70
     1
  9
$ANGBASE
 50
0.0
  9
$ANGDIR
 70
     0
  9
$PDMODE
 70
     0
  9
$PDSIZE
 40
0.0
  9
$PLINEWID
 40
0.0
  9
$COORDS
 70
     1
  9
$SPLFRAME
 70
     0
  9
$SPLINETYPE
 70
     6
  9
$SPLINESEGS
 70
     8
  9
$ATTDIA
 70
     0
  9
$ATTREQ
 70
     1
  9
$HANDLING
 70
     1
  9
$HANDSEED
  5
11A30
  9
$SURFTAB1
 70
     6
  9
$SURFTAB2
 70
     6
  9
$SURFTYPE
 70
     6
  9
$SURFU
 70
     6
  9
$SURFV
 70
     6
  9
$UCSNAME
  2

  9
$UCSORG
 10
0.0
 20
0.0
 30
0.0
  9
$UCSXDIR
 10
1.0
 20
0.0
 30
0.0
  9
$UCSYDIR
 10
0.0
 20
1.0
 30
0.0
  9
$PUCSNAME
  2

  9
$PUCSORG
 10
0.0
 20
0.0
 30
0.0
  9
$PUCSXDIR
 10
1.0
 20
0.0
 30
0.0
  9
$PUCSYDIR
 10
0.0
 20
1.0
 30
0.0
  9
$USERI1
 70
     0
  9
$USERI2
 70
     0
  9
$USERI3
 70
     0
  9
$USERI4
 70
     0
  9
$USERI5
 70
     0
  9
$USERR1
 40
0.0
  9
$USERR2
 40
0.0
  9
$USERR3
 40
0.0
  9
$USERR4
 40
0.0
  9
$USERR5
 40
0.0
  9
$WORLDVIEW
 70
     1
  9
$SHADEDGE
 70
     3
  9
$SHADEDIF
 70
    70
  9
$TILEMODE
 70
     1
  9
$MAXACTVP
 70
    64
  9
$PLIMCHECK
 70
     0
  9
$PEXTMIN
 10
0.0
 20
0.0
 30
0.0
  9
$PEXTMAX
 10
0.0
 20
0.0
 30
0.0
  9
$PLIMMIN
 10
-7.5
 20
-20.0
  9
$PLIMMAX
 10
412.5
 20
277.0
  9
$UNITMODE
 70
     0
  9
$VISRETAIN
 70
     1
  9
$PLINEGEN
 70
     0
  9
$PSLTSCALE
 70
     1
  0
ENDSEC
  0
SECTION
  2
TABLES
  0
TABLE
  2
VPORT
 70
     1
  0
VPORT
  2
*ACTIVE
 70
     0
 10
0.0
 20
0.0
 11
1.0
 21
1.0
 12
307.4305701755245
 22
100.0277105803646
 13
0.0
 23
0.0
 14
10.0
 24
10.0
 15
10.0
 25
10.0
 16
0.0
 26
0.0
 36
1.0
 17
-134.1869158878501
 27
0.0
 37
0.0
 40
246.528
 41
2.297450424929179
 42
50.0
 43
0.0
 44
0.0
 50
0.0
 51
0.0
 71
    16
 72
  1000
 73
     1
 74
     3
 75
     0
 76
     0
 77
     0
 78
     0
  0
ENDTAB
  0
TABLE
  2
LTYPE
 70
     1
  0
LTYPE
  2
CONTINUOUS
 70
     0
  3
Solid line
 72
    65
 73
     0
 40
0.0
  0
ENDTAB
  0
TABLE
  2
LAYER
 70
     4
  0
LAYER
  2
0
 70
     0
 62
     7
  6
CONTINUOUS
  0
LAYER
  2
LAYER_1
 70
     0
 62
     7
  6
CONTINUOUS
  0
LAYER
  2
DEFPOINTS
 70
     0
 62
     7
  6
CONTINUOUS
  0
LAYER
  2
TEXT
 70
     0
 62
     4
  6
CONTINUOUS
  0
ENDTAB
  0
TABLE
  2
STYLE
 70
     1
  0
STYLE
  2
STANDARD
 70
     0
 40
0.0
 41
1.0
 50
0.0
 71
     0
 42
2.5
  3
arial.ttf
  4

  0
ENDTAB
  0
TABLE
  2
VIEW
 70
     0
  0
ENDTAB
  0
TABLE
  2
UCS
 70
     0
  0
ENDTAB
  0
TABLE
  2
APPID
 70
     2
  0
APPID
  2
ACAD
 70
     0
  0
APPID
  2
ACAECLAYERSTANDARD
 70
     0
  0
ENDTAB
  0
TABLE
  2
DIMSTYLE
 70
     1
  0
DIMSTYLE
  2
ISO-25
 70
     0
  3

  4

  5

  6

  7

 40
1.0
 41
2.5
 42
0.625
 43
3.75
 44
1.25
 45
0.0
 46
0.0
 47
0.0
 48
0.0
140
2.5
141
2.5
142
0.0
143
0.03937007874016
144
1.0
145
0.0
146
1.0
147
0.625
 71
     0
 72
     0
 73
     0
 74
     0
 75
     0
 76
     0
 77
     1
 78
     8
170
     0
171
     3
172
     1
173
     0
174
     0
175
     0
176
     0
177
     0
178
     0
  0
ENDTAB
  0
ENDSEC
  0
SECTION
  2
BLOCKS
  0
BLOCK
  8
0
  2
$MODEL_SPACE
 70
     0
 10
0.0
 20
0.0
 30
0.0
  3
$MODEL_SPACE
  1

  0
ENDBLK
  5
21
  8
0
  0
BLOCK
 67
     1
  8
0
  2
$PAPER_SPACE
 70
     0
 10
0.0
 20
0.0
 30
0.0
  3
$PAPER_SPACE
  1

  0
ENDBLK
  5
25
 67
     1
  8
0
  0
BLOCK
  8
0
  2
*D23
 70
     1
 10
0.0
 20
0.0
 30
0.0
  3
*D23
  1

  0
LINE
  5
11743
  8
0
 62
     0
 10
20.06004398665004
 20
127.6117941584412
 30
0.0
 11
20.74983125890776
 21
127.6117941584412
 31
0.0
  0
LINE
  5
11744
  8
0
 62
     0
 10
20.06004398665004
 20
130.6105610320605
 30
0.0
 11
20.74983125890776
 21
130.6105610320605
 31
0.0
  0
LINE
  5
11745
  8
0
 62
     0
 10
19.49983125890776
 20
127.6117941584412
 30
0.0
 11
19.49983125890776
 21
130.6105610320605
 31
0.0
  0
LINE
  5
11746
  8
0
 62
     0
 10
19.49983125890776
 20
125.1117941584412
 30
0.0
 11
19.49983125890776
 21
122.6117941584412
 31
0.0
  0
LINE
  5
11747
  8
0
 62
     0
 10
19.49983125890776
 20
133.1105610320605
 30
0.0
 11
19.49983125890776
 21
135.6105610320605
 31
0.0
  0
SOLID
  5
11748
  8
0
 62
     0
 10
19.91649792557443
 20
125.1117941584412
 30
0.0
 11
19.08316459224109
 21
125.1117941584412
 31
0.0
 12
19.49983125890776
 22
127.6117941584412
 32
0.0
 13
19.49983125890776
 23
127.6117941584412
 33
0.0
  0
SOLID
  5
11749
  8
0
 62
     0
 10
19.08316459224109
 20
133.1105610320605
 30
0.0
 11
19.91649792557443
 21
133.1105610320605
 31
0.0
 12
19.49983125890776
 22
130.6105610320605
 32
0.0
 13
19.49983125890776
 23
130.6105610320605
 33
0.0
  0
TEXT
  5
1174A
  8
0
  6
CONTINUOUS
 62
     0
 10
18.83233125890776
 20
128.1461775952509
 30
0.0
 40
2.5
  1
3
 50
90.0
  0
POINT
  5
1174B
  8
DEFPOINTS
 62
     0
 10
19.43504398665004
 20
127.6117941584412
 30
0.0
  0
POINT
  5
1174C
  8
DEFPOINTS
 62
     0
 10
19.43504398665004
 20
130.6105610320605
 30
0.0
  0
POINT
  5
1174D
  8
DEFPOINTS
 62
     0
 10
19.49983125890776
 20
130.6105610320605
 30
0.0
  0
ENDBLK
  5
1174E
  8
0
  0
BLOCK
  8
0
  2
*D24
 70
     1
 10
0.0
 20
0.0
 30
0.0
  3
*D24
  1

  0
LINE
  5
11754
  8
0
 62
     0
 10
8.000654959778899
 20
117.116242593976
 30
0.0
 11
8.000654959778899
 21
116.3107999016316
 31
0.0
  0
LINE
  5
11755
  8
0
 62
     0
 10
5.0
 20
117.116242593976
 30
0.0
 11
5.0
 21
116.3107999016316
 31
0.0
  0
LINE
  5
11756
  8
0
 62
     0
 10
8.000654959778899
 20
117.5607999016316
 30
0.0
 11
5.0
 21
117.5607999016316
 31
0.0
  0
LINE
  5
11757
  8
0
 62
     0
 10
10.5006549597789
 20
117.5607999016316
 30
0.0
 11
13.0006549597789
 21
117.5607999016316
 31
0.0
  0
LINE
  5
11758
  8
0
 62
     0
 10
2.5
 20
117.5607999016316
 30
0.0
 11
0.0
 21
117.5607999016316
 31
0.0
  0
SOLID
  5
11759
  8
0
 62
     0
 10
10.5006549597789
 20
117.9774665682983
 30
0.0
 11
10.5006549597789
 21
117.1441332349649
 31
0.0
 12
8.000654959778899
 22
117.5607999016316
 32
0.0
 13
8.000654959778899
 23
117.5607999016316
 33
0.0
  0
SOLID
  5
1175A
  8
0
 62
     0
 10
2.5
 20
117.1441332349649
 30
0.0
 11
2.5
 21
117.9774665682983
 31
0.0
 12
5.0
 22
117.5607999016316
 32
0.0
 13
5.0
 23
117.5607999016316
 33
0.0
  0
TEXT
  5
1175B
  8
0
  6
CONTINUOUS
 62
     0
 10
5.53532747988945
 20
118.2282999016316
 30
0.0
 40
2.5
  1
3
  0
POINT
  5
1175C
  8
DEFPOINTS
 62
     0
 10
8.000654959778899
 20
117.741242593976
 30
0.0
  0
POINT
  5
1175D
  8
DEFPOINTS
 62
     0
 10
5.0
 20
117.741242593976
 30
0.0
  0
POINT
  5
1175E
  8
DEFPOINTS
 62
     0
 10
5.0
 20
117.5607999016316
 30
0.0
  0
ENDBLK
  5
1175F
  8
0
  0
BLOCK
  8
0
  2
*D25
 70
     1
 10
0.0
 20
0.0
 30
0.0
  3
*D25
  1

  0
LINE
  5
1176E
  8
0
 62
     0
 10
147.5099088742991
 20
19.78509391045924
 30
0.0
 11
146.8201216020414
 21
19.78509391045924
 31
0.0
  0
LINE
  5
1176F
  8
0
 62
     0
 10
147.5099088742991
 20
16.78632703683996
 30
0.0
 11
146.8201216020414
 21
16.78632703683996
 31
0.0
  0
LINE
  5
11770
  8
0
 62
     0
 10
148.0701216020414
 20
19.78509391045924
 30
0.0
 11
148.0701216020414
 21
16.78632703683996
 31
0.0
  0
LINE
  5
11771
  8
0
 62
     0
 10
148.0701216020414
 20
22.28509391045924
 30
0.0
 11
148.0701216020414
 21
24.78509391045924
 31
0.0
  0
LINE
  5
11772
  8
0
 62
     0
 10
148.0701216020414
 20
14.28632703683996
 30
0.0
 11
148.0701216020414
 21
11.78632703683996
 31
0.0
  0
SOLID
  5
11773
  8
0
 62
     0
 10
147.6534549353747
 20
22.28509391045924
 30
0.0
 11
148.486788268708
 21
22.28509391045924
 31
0.0
 12
148.0701216020414
 22
19.78509391045924
 32
0.0
 13
148.0701216020414
 23
19.78509391045924
 33
0.0
  0
SOLID
  5
11774
  8
0
 62
     0
 10
148.486788268708
 20
14.28632703683996
 30
0.0
 11
147.6534549353747
 21
14.28632703683996
 31
0.0
 12
148.0701216020414
 22
16.78632703683996
 32
0.0
 13
148.0701216020414
 23
16.78632703683996
 33
0.0
  0
TEXT
  5
11775
  8
0
  6
CONTINUOUS
 62
     0
 10
147.4026216020413
 20
17.3207104736496
 30
0.0
 40
2.5
  1
3
 50
90.0
  0
POINT
  5
11776
  8
DEFPOINTS
 62
     0
 10
148.1349088742991
 20
19.78509391045924
 30
0.0
  0
POINT
  5
11777
  8
DEFPOINTS
 62
     0
 10
148.1349088742991
 20
16.78632703683996
 30
0.0
  0
POINT
  5
11778
  8
DEFPOINTS
 62
     0
 10
148.0701216020414
 20
16.78632703683996
 30
0.0
  0
ENDBLK
  5
11779
  8
0
  0
BLOCK
  8
0
  2
*D26
 70
     1
 10
0.0
 20
0.0
 30
0.0
  3
*D26
  1

  0
LINE
  5
1177F
  8
0
 62
     0
 10
159.5692979011703
 20
29.03064547492448
 30
0.0
 11
159.5692979011703
 21
28.22520278258008
 31
0.0
  0
LINE
  5
11780
  8
0
 62
     0
 10
162.5699528609491
 20
29.03064547492448
 30
0.0
 11
162.5699528609491
 21
28.22520278258008
 31
0.0
  0
LINE
  5
11781
  8
0
 62
     0
 10
159.5692979011703
 20
29.47520278258008
 30
0.0
 11
162.5699528609491
 21
29.47520278258008
 31
0.0
  0
LINE
  5
11782
  8
0
 62
     0
 10
157.0692979011703
 20
29.47520278258008
 30
0.0
 11
154.5692979011703
 21
29.47520278258008
 31
0.0
  0
LINE
  5
11783
  8
0
 62
     0
 10
165.0699528609491
 20
29.47520278258008
 30
0.0
 11
167.5699528609491
 21
29.47520278258008
 31
0.0
  0
SOLID
  5
11784
  8
0
 62
     0
 10
157.0692979011703
 20
29.05853611591342
 30
0.0
 11
157.0692979011703
 21
29.89186944924675
 31
0.0
 12
159.5692979011703
 22
29.47520278258008
 32
0.0
 13
159.5692979011703
 23
29.47520278258008
 33
0.0
  0
SOLID
  5
11785
  8
0
 62
     0
 10
165.0699528609491
 20
29.89186944924675
 30
0.0
 11
165.0699528609491
 21
29.05853611591342
 31
0.0
 12
162.5699528609491
 22
29.47520278258008
 32
0.0
 13
162.5699528609491
 23
29.47520278258008
 33
0.0
  0
TEXT
  5
11786
  8
0
  6
CONTINUOUS
 62
     0
 10
160.1046253810597
 20
30.14270278258008
 30
0.0
 40
2.5
  1
3
  0
POINT
  5
11787
  8
DEFPOINTS
 62
     0
 10
159.5692979011703
 20
29.65564547492448
 30
0.0
  0
POINT
  5
11788
  8
DEFPOINTS
 62
     0
 10
162.5699528609491
 20
29.65564547492448
 30
0.0
  0
POINT
  5
11789
  8
DEFPOINTS
 62
     0
 10
162.5699528609491
 20
29.47520278258008
 30
0.0
  0
ENDBLK
  5
1178A
  8
0
  0
BLOCK
  8
0
  2
*D27
 70
     1
 10
0.0
 20
0.0
 30
0.0
  3
*D27
  1

  0
LINE
  5
11795
  8
0
 62
     0
 10
138.6169494413023
 20
109.6881412503391
 30
0.0
 11
138.6169494413023
 21
108.9983539780814
 31
0.0
  0
LINE
  5
11796
  8
0
 62
     0
 10
141.6157163149217
 20
109.6881412503391
 30
0.0
 11
141.6157163149217
 21
108.9983539780814
 31
0.0
  0
LINE
  5
11797
  8
0
 62
     0
 10
138.6169494413023
 20
110.2483539780814
 30
0.0
 11
141.6157163149217
 21
110.2483539780814
 31
0.0
  0
LINE
  5
11798
  8
0
 62
     0
 10
136.1169494413023
 20
110.2483539780814
 30
0.0
 11
133.6169494413023
 21
110.2483539780814
 31
0.0
  0
LINE
  5
11799
  8
0
 62
     0
 10
144.1157163149217
 20
110.2483539780814
 30
0.0
 11
146.6157163149217
 21
110.2483539780814
 31
0.0
  0
SOLID
  5
1179A
  8
0
 62
     0
 10
136.1169494413023
 20
109.8316873114147
 30
0.0
 11
136.1169494413023
 21
110.6650206447481
 31
0.0
 12
138.6169494413023
 22
110.2483539780814
 32
0.0
 13
138.6169494413023
 23
110.2483539780814
 33
0.0
  0
SOLID
  5
1179B
  8
0
 62
     0
 10
144.1157163149217
 20
110.6650206447481
 30
0.0
 11
144.1157163149217
 21
109.8316873114147
 31
0.0
 12
141.6157163149217
 22
110.2483539780814
 32
0.0
 13
141.6157163149217
 23
110.2483539780814
 33
0.0
  0
TEXT
  5
1179C
  8
0
  6
CONTINUOUS
 62
     0
 10
139.151332878112
 20
110.9158539780814
 30
0.0
 40
2.5
  1
3
  0
POINT
  5
1179D
  8
DEFPOINTS
 62
     0
 10
138.6169494413023
 20
110.3131412503391
 30
0.0
  0
POINT
  5
1179E
  8
DEFPOINTS
 62
     0
 10
141.6157163149217
 20
110.3131412503391
 30
0.0
  0
POINT
  5
1179F
  8
DEFPOINTS
 62
     0
 10
141.6157163149217
 20
110.2483539780814
 30
0.0
  0
ENDBLK
  5
117A0
  8
0
  0
BLOCK
  8
0
  2
*D28
 70
     1
 10
0.0
 20
0.0
 30
0.0
  3
*D28
  1

  0
LINE
  5
117A6
  8
0
 62
     0
 10
128.1213978768371
 20
121.7475302772103
 30
0.0
 11
127.3159551844926
 21
121.7475302772103
 31
0.0
  0
LINE
  5
117A7
  8
0
 62
     0
 10
128.1213978768371
 20
124.7481852369892
 30
0.0
 11
127.3159551844926
 21
124.7481852369892
 31
0.0
  0
LINE
  5
117A8
  8
0
 62
     0
 10
128.5659551844926
 20
121.7475302772103
 30
0.0
 11
128.5659551844926
 21
124.7481852369892
 31
0.0
  0
LINE
  5
117A9
  8
0
 62
     0
 10
128.5659551844926
 20
119.2475302772103
 30
0.0
 11
128.5659551844926
 21
116.7475302772103
 31
0.0
  0
LINE
  5
117AA
  8
0
 62
     0
 10
128.5659551844926
 20
127.2481852369892
 30
0.0
 11
128.5659551844926
 21
129.7481852369892
 31
0.0
  0
SOLID
  5
117AB
  8
0
 62
     0
 10
128.9826218511593
 20
119.2475302772103
 30
0.0
 11
128.149288517826
 21
119.2475302772103
 31
0.0
 12
128.5659551844926
 22
121.7475302772103
 32
0.0
 13
128.5659551844926
 23
121.7475302772103
 33
0.0
  0
SOLID
  5
117AC
  8
0
 62
     0
 10
128.149288517826
 20
127.2481852369892
 30
0.0
 11
128.9826218511593
 21
127.2481852369892
 31
0.0
 12
128.5659551844926
 22
124.7481852369892
 32
0.0
 13
128.5659551844926
 23
124.7481852369892
 33
0.0
  0
TEXT
  5
117AD
  8
0
  6
CONTINUOUS
 62
     0
 10
127.8984551844926
 20
122.2828577570997
 30
0.0
 40
2.5
  1
3
 50
90.0
  0
POINT
  5
117AE
  8
DEFPOINTS
 62
     0
 10
128.7463978768371
 20
121.7475302772103
 30
0.0
  0
POINT
  5
117AF
  8
DEFPOINTS
 62
     0
 10
128.7463978768371
 20
124.7481852369892
 30
0.0
  0
POINT
  5
117B0
  8
DEFPOINTS
 62
     0
 10
128.5659551844926
 20
124.7481852369892
 30
0.0
  0
ENDBLK
  5
117B1
  8
0
  0
BLOCK
  8
0
  2
*D29
 70
     1
 10
0.0
 20
0.0
 30
0.0
  3
*D29
  1

  0
LINE
  5
117BC
  8
0
 62
     0
 10
9.278992979178156
 20
29.60870784856724
 30
0.0
 11
9.278992979178156
 21
30.29849512082495
 31
0.0
  0
LINE
  5
117BD
  8
0
 62
     0
 10
6.280226105558995
 20
29.60870784856724
 30
0.0
 11
6.280226105558995
 21
30.29849512082495
 31
0.0
  0
LINE
  5
117BE
  8
0
 62
     0
 10
9.278992979178156
 20
29.04849512082495
 30
0.0
 11
6.280226105558995
 21
29.04849512082495
 31
0.0
  0
LINE
  5
117BF
  8
0
 62
     0
 10
11.77899297917816
 20
29.04849512082495
 30
0.0
 11
14.27899297917816
 21
29.04849512082495
 31
0.0
  0
LINE
  5
117C0
  8
0
 62
     0
 10
3.780226105558995
 20
29.04849512082495
 30
0.0
 11
1.280226105558995
 21
29.04849512082495
 31
0.0
  0
SOLID
  5
117C1
  8
0
 62
     0
 10
11.77899297917816
 20
29.46516178749162
 30
0.0
 11
11.77899297917816
 21
28.63182845415828
 31
0.0
 12
9.278992979178156
 22
29.04849512082495
 32
0.0
 13
9.278992979178156
 23
29.04849512082495
 33
0.0
  0
SOLID
  5
117C2
  8
0
 62
     0
 10
3.780226105558995
 20
28.63182845415828
 30
0.0
 11
3.780226105558995
 21
29.46516178749162
 31
0.0
 12
6.280226105558995
 22
29.04849512082495
 32
0.0
 13
6.280226105558995
 23
29.04849512082495
 33
0.0
  0
TEXT
  5
117C3
  8
0
  6
CONTINUOUS
 62
     0
 10
6.814609542368576
 20
29.71599512082495
 30
0.0
 40
2.5
  1
3
  0
POINT
  5
117C4
  8
DEFPOINTS
 62
     0
 10
9.278992979178156
 20
28.98370784856724
 30
0.0
  0
POINT
  5
117C5
  8
DEFPOINTS
 62
     0
 10
6.280226105558995
 20
28.98370784856724
 30
0.0
  0
POINT
  5
117C6
  8
DEFPOINTS
 62
     0
 10
6.280226105558995
 20
29.04849512082495
 30
0.0
  0
ENDBLK
  5
117C7
  8
0
  0
BLOCK
  8
0
  2
*D30
 70
     1
 10
0.0
 20
0.0
 30
0.0
  3
*D30
  1

  0
LINE
  5
117CD
  8
0
 62
     0
 10
19.77454454364351
 20
17.5493188216962
 30
0.0
 11
20.5799872359878
 21
17.5493188216962
 31
0.0
  0
LINE
  5
117CE
  8
0
 62
     0
 10
19.77454454364351
 20
14.54866386191719
 30
0.0
 11
20.5799872359878
 21
14.54866386191719
 31
0.0
  0
LINE
  5
117CF
  8
0
 62
     0
 10
19.3299872359878
 20
17.5493188216962
 30
0.0
 11
19.3299872359878
 21
14.54866386191719
 31
0.0
  0
LINE
  5
117D0
  8
0
 62
     0
 10
19.3299872359878
 20
20.0493188216962
 30
0.0
 11
19.3299872359878
 21
22.5493188216962
 31
0.0
  0
LINE
  5
117D1
  8
0
 62
     0
 10
19.3299872359878
 20
12.04866386191719
 30
0.0
 11
19.3299872359878
 21
9.548663861917191
 31
0.0
  0
SOLID
  5
117D2
  8
0
 62
     0
 10
18.91332056932113
 20
20.0493188216962
 30
0.0
 11
19.74665390265447
 21
20.0493188216962
 31
0.0
 12
19.3299872359878
 22
17.5493188216962
 32
0.0
 13
19.3299872359878
 23
17.5493188216962
 33
0.0
  0
SOLID
  5
117D3
  8
0
 62
     0
 10
19.74665390265447
 20
12.04866386191719
 30
0.0
 11
18.91332056932113
 21
12.04866386191719
 31
0.0
 12
19.3299872359878
 22
14.54866386191719
 32
0.0
 13
19.3299872359878
 23
14.54866386191719
 33
0.0
  0
TEXT
  5
117D4
  8
0
  6
CONTINUOUS
 62
     0
 10
18.6624872359878
 20
15.0839913418067
 30
0.0
 40
2.5
  1
3
 50
90.0
  0
POINT
  5
117D5
  8
DEFPOINTS
 62
     0
 10
19.14954454364351
 20
17.5493188216962
 30
0.0
  0
POINT
  5
117D6
  8
DEFPOINTS
 62
     0
 10
19.14954454364351
 20
14.54866386191719
 30
0.0
  0
POINT
  5
117D7
  8
DEFPOINTS
 62
     0
 10
19.3299872359878
 20
14.54866386191719
 30
0.0
  0
ENDBLK
  5
117D8
  8
0
  0
BLOCK
  8
0
  2
*D31
 70
     1
 10
0.0
 20
0.0
 30
0.0
  3
*D31
  1

  0
LINE
  5
1180F
  8
0
 62
     0
 10
31.11071459869549
 20
110.498168055415
 30
0.0
 11
31.80050187095321
 21
110.498168055415
 31
0.0
  0
LINE
  5
11810
  8
0
 62
     0
 10
31.11071459869549
 20
113.4969349290343
 30
0.0
 11
31.80050187095321
 21
113.4969349290343
 31
0.0
  0
LINE
  5
11811
  8
0
 62
     0
 10
30.55050187095321
 20
110.498168055415
 30
0.0
 11
30.55050187095321
 21
113.4969349290343
 31
0.0
  0
LINE
  5
11812
  8
0
 62
     0
 10
30.55050187095321
 20
107.998168055415
 30
0.0
 11
30.55050187095321
 21
105.498168055415
 31
0.0
  0
LINE
  5
11813
  8
0
 62
     0
 10
30.55050187095321
 20
115.9969349290343
 30
0.0
 11
30.55050187095321
 21
118.4969349290343
 31
0.0
  0
SOLID
  5
11814
  8
0
 62
     0
 10
30.96716853761988
 20
107.998168055415
 30
0.0
 11
30.13383520428654
 21
107.998168055415
 31
0.0
 12
30.55050187095321
 22
110.498168055415
 32
0.0
 13
30.55050187095321
 23
110.498168055415
 33
0.0
  0
SOLID
  5
11815
  8
0
 62
     0
 10
30.13383520428654
 20
115.9969349290343
 30
0.0
 11
30.96716853761988
 21
115.9969349290343
 31
0.0
 12
30.55050187095321
 22
113.4969349290343
 32
0.0
 13
30.55050187095321
 23
113.4969349290343
 33
0.0
  0
TEXT
  5
11816
  8
0
  6
CONTINUOUS
 62
     0
 10
29.88300187095321
 20
111.0325514922247
 30
0.0
 40
2.5
  1
3
 50
90.0
  0
POINT
  5
11817
  8
DEFPOINTS
 62
     0
 10
30.48571459869549
 20
110.498168055415
 30
0.0
  0
POINT
  5
11818
  8
DEFPOINTS
 62
     0
 10
30.48571459869549
 20
113.4969349290343
 30
0.0
  0
POINT
  5
11819
  8
DEFPOINTS
 62
     0
 10
30.55050187095321
 20
113.4969349290343
 30
0.0
  0
ENDBLK
  5
1180E
  8
0
  0
BLOCK
  8
0
  2
*D32
 70
     1
 10
0.0
 20
0.0
 30
0.0
  3
*D32
  1

  0
LINE
  5
1181D
  8
0
 62
     0
 10
19.05132557182435
 20
100.0026164909498
 30
0.0
 11
19.05132557182435
 21
99.19717379860538
 31
0.0
  0
LINE
  5
1181E
  8
0
 62
     0
 10
16.05067061204545
 20
100.0026164909498
 30
0.0
 11
16.05067061204545
 21
99.19717379860538
 31
0.0
  0
LINE
  5
1181F
  8
0
 62
     0
 10
19.05132557182435
 20
100.4471737986054
 30
0.0
 11
16.05067061204545
 21
100.4471737986054
 31
0.0
  0
LINE
  5
11820
  8
0
 62
     0
 10
21.55132557182435
 20
100.4471737986054
 30
0.0
 11
24.05132557182435
 21
100.4471737986054
 31
0.0
  0
LINE
  5
11821
  8
0
 62
     0
 10
13.55067061204545
 20
100.4471737986054
 30
0.0
 11
11.05067061204545
 21
100.4471737986054
 31
0.0
  0
SOLID
  5
11822
  8
0
 62
     0
 10
21.55132557182435
 20
100.863840465272
 30
0.0
 11
21.55132557182435
 21
100.0305071319387
 31
0.0
 12
19.05132557182435
 22
100.4471737986054
 32
0.0
 13
19.05132557182435
 23
100.4471737986054
 33
0.0
  0
SOLID
  5
11823
  8
0
 62
     0
 10
13.55067061204545
 20
100.0305071319387
 30
0.0
 11
13.55067061204545
 21
100.863840465272
 31
0.0
 12
16.05067061204545
 22
100.4471737986054
 32
0.0
 13
16.05067061204545
 23
100.4471737986054
 33
0.0
  0
TEXT
  5
11824
  8
0
  6
CONTINUOUS
 62
     0
 10
16.5859980919349
 20
101.1146737986054
 30
0.0
 40
2.5
  1
3
  0
POINT
  5
11825
  8
DEFPOINTS
 62
     0
 10
19.05132557182435
 20
100.6276164909498
 30
0.0
  0
POINT
  5
11826
  8
DEFPOINTS
 62
     0
 10
16.05067061204545
 20
100.6276164909498
 30
0.0
  0
POINT
  5
11827
  8
DEFPOINTS
 62
     0
 10
16.05067061204545
 20
100.4471737986054
 30
0.0
  0
ENDBLK
  5
1181C
  8
0
  0
BLOCK
  8
0
  2
*D33
 70
     1
 10
0.0
 20
0.0
 30
0.0
  3
*D33
  1

  0
LINE
  5
1182B
  8
0
 62
     0
 10
286.9919111732718
 20
20.50011414286604
 30
0.0
 11
286.3021239010141
 21
20.50011414286604
 31
0.0
  0
LINE
  5
1182C
  8
0
 62
     0
 10
286.9919111732718
 20
17.50134726924682
 30
0.0
 11
286.3021239010141
 21
17.50134726924682
 31
0.0
  0
LINE
  5
1182D
  8
0
 62
     0
 10
287.5521239010141
 20
20.50011414286604
 30
0.0
 11
287.5521239010141
 21
17.50134726924682
 31
0.0
  0
LINE
  5
1182E
  8
0
 62
     0
 10
287.5521239010141
 20
23.00011414286604
 30
0.0
 11
287.5521239010141
 21
25.50011414286604
 31
0.0
  0
LINE
  5
1182F
  8
0
 62
     0
 10
287.5521239010141
 20
15.00134726924682
 30
0.0
 11
287.5521239010141
 21
12.50134726924682
 31
0.0
  0
SOLID
  5
11830
  8
0
 62
     0
 10
287.1354572343474
 20
23.00011414286604
 30
0.0
 11
287.9687905676808
 21
23.00011414286604
 31
0.0
 12
287.5521239010141
 22
20.50011414286604
 32
0.0
 13
287.5521239010141
 23
20.50011414286604
 33
0.0
  0
SOLID
  5
11831
  8
0
 62
     0
 10
287.9687905676808
 20
15.00134726924682
 30
0.0
 11
287.1354572343474
 21
15.00134726924682
 31
0.0
 12
287.5521239010141
 22
17.50134726924682
 32
0.0
 13
287.5521239010141
 23
17.50134726924682
 33
0.0
  0
TEXT
  5
11832
  8
0
  6
CONTINUOUS
 62
     0
 10
286.8846239010142
 20
18.03573070605648
 30
0.0
 40
2.5
  1
3
 50
90.0
  0
POINT
  5
11833
  8
DEFPOINTS
 62
     0
 10
287.6169111732718
 20
20.50011414286604
 30
0.0
  0
POINT
  5
11834
  8
DEFPOINTS
 62
     0
 10
287.6169111732718
 20
17.50134726924682
 30
0.0
  0
POINT
  5
11835
  8
DEFPOINTS
 62
     0
 10
287.5521239010141
 20
17.50134726924682
 30
0.0
  0
ENDBLK
  5
1182A
  8
0
  0
BLOCK
  8
0
  2
*D34
 70
     1
 10
0.0
 20
0.0
 30
0.0
  3
*D34
  1

  0
LINE
  5
11839
  8
0
 62
     0
 10
299.051300200143
 20
29.74566570733134
 30
0.0
 11
299.051300200143
 21
28.94022301498694
 31
0.0
  0
LINE
  5
1183A
  8
0
 62
     0
 10
302.0519551599218
 20
29.74566570733134
 30
0.0
 11
302.0519551599218
 21
28.94022301498694
 31
0.0
  0
LINE
  5
1183B
  8
0
 62
     0
 10
299.051300200143
 20
30.19022301498694
 30
0.0
 11
302.0519551599218
 21
30.19022301498694
 31
0.0
  0
LINE
  5
1183C
  8
0
 62
     0
 10
296.551300200143
 20
30.19022301498694
 30
0.0
 11
294.051300200143
 21
30.19022301498694
 31
0.0
  0
LINE
  5
1183D
  8
0
 62
     0
 10
304.5519551599218
 20
30.19022301498694
 30
0.0
 11
307.0519551599218
 21
30.19022301498694
 31
0.0
  0
SOLID
  5
1183E
  8
0
 62
     0
 10
296.551300200143
 20
29.77355634832027
 30
0.0
 11
296.551300200143
 21
30.60688968165361
 31
0.0
 12
299.051300200143
 22
30.19022301498694
 32
0.0
 13
299.051300200143
 23
30.19022301498694
 33
0.0
  0
SOLID
  5
1183F
  8
0
 62
     0
 10
304.5519551599218
 20
30.60688968165361
 30
0.0
 11
304.5519551599218
 21
29.77355634832027
 31
0.0
 12
302.0519551599218
 22
30.19022301498694
 32
0.0
 13
302.0519551599218
 23
30.19022301498694
 33
0.0
  0
TEXT
  5
11840
  8
0
  6
CONTINUOUS
 62
     0
 10
299.5866276800324
 20
30.85772301498694
 30
0.0
 40
2.5
  1
3
  0
POINT
  5
11841
  8
DEFPOINTS
 62
     0
 10
299.051300200143
 20
30.37066570733134
 30
0.0
  0
POINT
  5
11842
  8
DEFPOINTS
 62
     0
 10
302.0519551599218
 20
30.37066570733134
 30
0.0
  0
POINT
  5
11843
  8
DEFPOINTS
 62
     0
 10
302.0519551599218
 20
30.19022301498694
 30
0.0
  0
ENDBLK
  5
11838
  8
0
  0
BLOCK
  8
0
  2
*D35
 70
     1
 10
0.0
 20
0.0
 30
0.0
  3
*D35
  1

  0
LINE
  5
11847
  8
0
 62
     0
 10
299.0503398422582
 20
98.43973938642864
 30
0.0
 11
299.0503398422582
 21
97.74995211417092
 31
0.0
  0
LINE
  5
11848
  8
0
 62
     0
 10
302.0491067158775
 20
98.43973938642864
 30
0.0
 11
302.0491067158775
 21
97.74995211417092
 31
0.0
  0
LINE
  5
11849
  8
0
 62
     0
 10
299.0503398422582
 20
98.99995211417092
 30
0.0
 11
302.0491067158775
 21
98.99995211417092
 31
0.0
  0
LINE
  5
1184A
  8
0
 62
     0
 10
296.5503398422582
 20
98.99995211417092
 30
0.0
 11
294.0503398422582
 21
98.99995211417092
 31
0.0
  0
LINE
  5
1184B
  8
0
 62
     0
 10
304.5491067158775
 20
98.99995211417092
 30
0.0
 11
307.0491067158775
 21
98.99995211417092
 31
0.0
  0
SOLID
  5
1184C
  8
0
 62
     0
 10
296.5503398422582
 20
98.58328544750425
 30
0.0
 11
296.5503398422582
 21
99.4166187808376
 31
0.0
 12
299.0503398422582
 22
98.99995211417092
 32
0.0
 13
299.0503398422582
 23
98.99995211417092
 33
0.0
  0
SOLID
  5
1184D
  8
0
 62
     0
 10
304.5491067158775
 20
99.4166187808376
 30
0.0
 11
304.5491067158775
 21
98.58328544750425
 31
0.0
 12
302.0491067158775
 22
98.99995211417092
 32
0.0
 13
302.0491067158775
 23
98.99995211417092
 33
0.0
  0
TEXT
  5
1184E
  8
0
  6
CONTINUOUS
 62
     0
 10
299.5847232790679
 20
99.66745211417093
 30
0.0
 40
2.5
  1
3
  0
POINT
  5
1184F
  8
DEFPOINTS
 62
     0
 10
299.0503398422582
 20
99.06473938642864
 30
0.0
  0
POINT
  5
11850
  8
DEFPOINTS
 62
     0
 10
302.0491067158775
 20
99.06473938642864
 30
0.0
  0
POINT
  5
11851
  8
DEFPOINTS
 62
     0
 10
302.0491067158775
 20
98.99995211417092
 30
0.0
  0
ENDBLK
  5
11846
  8
0
  0
BLOCK
  8
0
  2
*D36
 70
     1
 10
0.0
 20
0.0
 30
0.0
  3
*D36
  1

  0
LINE
  5
11855
  8
0
 62
     0
 10
288.554788277793
 20
110.4991284132998
 30
0.0
 11
287.7493455854485
 21
110.4991284132998
 31
0.0
  0
LINE
  5
11856
  8
0
 62
     0
 10
288.554788277793
 20
113.4997833730787
 30
0.0
 11
287.7493455854485
 21
113.4997833730787
 31
0.0
  0
LINE
  5
11857
  8
0
 62
     0
 10
288.9993455854485
 20
110.4991284132998
 30
0.0
 11
288.9993455854485
 21
113.4997833730787
 31
0.0
  0
LINE
  5
11858
  8
0
 62
     0
 10
288.9993455854485
 20
107.9991284132998
 30
0.0
 11
288.9993455854485
 21
105.4991284132998
 31
0.0
  0
LINE
  5
11859
  8
0
 62
     0
 10
288.9993455854485
 20
115.9997833730787
 30
0.0
 11
288.9993455854485
 21
118.4997833730787
 31
0.0
  0
SOLID
  5
1185A
  8
0
 62
     0
 10
289.4160122521152
 20
107.9991284132998
 30
0.0
 11
288.5826789187818
 21
107.9991284132998
 31
0.0
 12
288.9993455854485
 22
110.4991284132998
 32
0.0
 13
288.9993455854485
 23
110.4991284132998
 33
0.0
  0
SOLID
  5
1185B
  8
0
 62
     0
 10
288.5826789187818
 20
115.9997833730787
 30
0.0
 11
289.4160122521152
 21
115.9997833730787
 31
0.0
 12
288.9993455854485
 22
113.4997833730787
 32
0.0
 13
288.9993455854485
 23
113.4997833730787
 33
0.0
  0
TEXT
  5
1185C
  8
0
  6
CONTINUOUS
 62
     0
 10
288.3318455854485
 20
111.0344558931893
 30
0.0
 40
2.5
  1
3
 50
90.0
  0
POINT
  5
1185D
  8
DEFPOINTS
 62
     0
 10
289.179788277793
 20
110.4991284132998
 30
0.0
  0
POINT
  5
1185E
  8
DEFPOINTS
 62
     0
 10
289.179788277793
 20
113.4997833730787
 30
0.0
  0
POINT
  5
1185F
  8
DEFPOINTS
 62
     0
 10
288.9993455854485
 20
113.4997833730787
 30
0.0
  0
ENDBLK
  5
11854
  8
0
  0
BLOCK
  8
0
  2
*D37
 70
     1
 10
0.0
 20
0.0
 30
0.0
  3
*D37
  1

  0
LINE
  5
11863
  8
0
 62
     0
 10
19.05228592970911
 20
32.55854281185225
 30
0.0
 11
19.05228592970911
 21
33.24833008410997
 31
0.0
  0
LINE
  5
11864
  8
0
 62
     0
 10
16.05351905608995
 20
32.55854281185225
 30
0.0
 11
16.05351905608995
 21
33.24833008410997
 31
0.0
  0
LINE
  5
11865
  8
0
 62
     0
 10
19.05228592970911
 20
31.99833008410997
 30
0.0
 11
16.05351905608995
 21
31.99833008410997
 31
0.0
  0
LINE
  5
11866
  8
0
 62
     0
 10
21.55228592970911
 20
31.99833008410997
 30
0.0
 11
24.05228592970911
 21
31.99833008410997
 31
0.0
  0
LINE
  5
11867
  8
0
 62
     0
 10
13.55351905608995
 20
31.99833008410997
 30
0.0
 11
11.05351905608995
 21
31.99833008410997
 31
0.0
  0
SOLID
  5
11868
  8
0
 62
     0
 10
21.55228592970911
 20
32.41499675077663
 30
0.0
 11
21.55228592970911
 21
31.5816634174433
 31
0.0
 12
19.05228592970911
 22
31.99833008410997
 32
0.0
 13
19.05228592970911
 23
31.99833008410997
 33
0.0
  0
SOLID
  5
11869
  8
0
 62
     0
 10
13.55351905608995
 20
31.5816634174433
 30
0.0
 11
13.55351905608995
 21
32.41499675077663
 31
0.0
 12
16.05351905608995
 22
31.99833008410997
 32
0.0
 13
16.05351905608995
 23
31.99833008410997
 33
0.0
  0
TEXT
  5
1186A
  8
0
  6
CONTINUOUS
 62
     0
 10
16.58790249289953
 20
32.66583008410996
 30
0.0
 40
2.5
  1
3
  0
POINT
  5
1186B
  8
DEFPOINTS
 62
     0
 10
19.05228592970911
 20
31.93354281185225
 30
0.0
  0
POINT
  5
1186C
  8
DEFPOINTS
 62
     0
 10
16.05351905608995
 20
31.93354281185225
 30
0.0
  0
POINT
  5
1186D
  8
DEFPOINTS
 62
     0
 10
16.05351905608995
 20
31.99833008410997
 30
0.0
  0
ENDBLK
  5
11862
  8
0
  0
BLOCK
  8
0
  2
*D38
 70
     1
 10
0.0
 20
0.0
 30
0.0
  3
*D38
  1

  0
LINE
  5
11871
  8
0
 62
     0
 10
29.54783749417447
 20
20.49915378498122
 30
0.0
 11
30.35328018651876
 21
20.49915378498122
 31
0.0
  0
LINE
  5
11872
  8
0
 62
     0
 10
29.54783749417447
 20
17.4984988252022
 30
0.0
 11
30.35328018651876
 21
17.4984988252022
 31
0.0
  0
LINE
  5
11873
  8
0
 62
     0
 10
29.10328018651876
 20
20.49915378498122
 30
0.0
 11
29.10328018651876
 21
17.4984988252022
 31
0.0
  0
LINE
  5
11874
  8
0
 62
     0
 10
29.10328018651876
 20
22.99915378498122
 30
0.0
 11
29.10328018651876
 21
25.49915378498122
 31
0.0
  0
LINE
  5
11875
  8
0
 62
     0
 10
29.10328018651876
 20
14.9984988252022
 30
0.0
 11
29.10328018651876
 21
12.4984988252022
 31
0.0
  0
SOLID
  5
11876
  8
0
 62
     0
 10
28.68661351985209
 20
22.99915378498122
 30
0.0
 11
29.51994685318543
 21
22.99915378498122
 31
0.0
 12
29.10328018651876
 22
20.49915378498122
 32
0.0
 13
29.10328018651876
 23
20.49915378498122
 33
0.0
  0
SOLID
  5
11877
  8
0
 62
     0
 10
29.51994685318543
 20
14.9984988252022
 30
0.0
 11
28.68661351985209
 21
14.9984988252022
 31
0.0
 12
29.10328018651876
 22
17.4984988252022
 32
0.0
 13
29.10328018651876
 23
17.4984988252022
 33
0.0
  0
TEXT
  5
11878
  8
0
  6
CONTINUOUS
 62
     0
 10
28.43578018651876
 20
18.03382630509171
 30
0.0
 40
2.5
  1
3
 50
90.0
  0
POINT
  5
11879
  8
DEFPOINTS
 62
     0
 10
28.92283749417447
 20
20.49915378498122
 30
0.0
  0
POINT
  5
1187A
  8
DEFPOINTS
 62
     0
 10
28.92283749417447
 20
17.4984988252022
 30
0.0
  0
POINT
  5
1187B
  8
DEFPOINTS
 62
     0
 10
29.10328018651876
 20
17.4984988252022
 30
0.0
  0
ENDBLK
  5
11870
  8
0
  0
ENDSEC
  0
SECTION
  2
ENTITIES
  0
POLYLINE
  5
116C5
  8
LAYER_1
 66
     1
 10
0.0
 20
0.0
 30
0.0
  0
VERTEX
  5
1187C
  8
LAYER_1
 10
19.05131288598363
 20
110.4991410991405
 30
0.0
  0
VERTEX
  5
1187D
  8
LAYER_1
 10
33.05131288598363
 20
110.4991410991405
 30
0.0
  0
VERTEX
  5
1187E
  8
LAYER_1
 10
33.05131288598363
 20
96.4991410991405
 30
0.0
  0
VERTEX
  5
1187F
  8
LAYER_1
 10
19.05131288598363
 20
96.4991410991405
 30
0.0
  0
VERTEX
  5
11880
  8
LAYER_1
 10
19.05131288598363
 20
110.4991410991405
 30
0.0
  0
SEQEND
  5
119E6
  8
LAYER_1
  0
POLYLINE
  5
116C6
  8
LAYER_1
 66
     1
 10
0.0
 20
0.0
 30
0.0
  0
VERTEX
  5
11881
  8
LAYER_1
 10
38.05131288598363
 20
110.4991410991405
 30
0.0
  0
VERTEX
  5
11882
  8
LAYER_1
 10
52.05131288598363
 20
110.4991410991405
 30
0.0
  0
VERTEX
  5
11883
  8
LAYER_1
 10
52.05131288598363
 20
96.4991410991405
 30
0.0
  0
VERTEX
  5
11884
  8
LAYER_1
 10
38.05131288598363
 20
96.4991410991405
 30
0.0
  0
VERTEX
  5
11885
  8
LAYER_1
 10
38.05131288598363
 20
110.4991410991405
 30
0.0
  0
SEQEND
  5
119E7
  8
LAYER_1
  0
POLYLINE
  5
116C7
  8
LAYER_1
 66
     1
 10
0.0
 20
0.0
 30
0.0
  0
VERTEX
  5
11886
  8
LAYER_1
 10
57.05131288598363
 20
110.4991410991405
 30
0.0
  0
VERTEX
  5
11887
  8
LAYER_1
 10
71.05131288598363
 20
110.4991410991405
 30
0.0
  0
VERTEX
  5
11888
  8
LAYER_1
 10
71.05131288598363
 20
96.4991410991405
 30
0.0
  0
VERTEX
  5
11889
  8
LAYER_1
 10
57.05131288598363
 20
96.4991410991405
 30
0.0
  0
VERTEX
  5
1188A
  8
LAYER_1
 10
57.05131288598363
 20
110.4991410991405
 30
0.0
  0
SEQEND
  5
119E8
  8
LAYER_1
  0
POLYLINE
  5
116C8
  8
LAYER_1
 66
     1
 10
0.0
 20
0.0
 30
0.0
  0
VERTEX
  5
1188B
  8
LAYER_1
 10
76.05131288598363
 20
110.4991410991405
 30
0.0
  0
VERTEX
  5
1188C
  8
LAYER_1
 10
90.05131288598363
 20
110.4991410991405
 30
0.0
  0
VERTEX
  5
1188D
  8
LAYER_1
 10
90.05131288598363
 20
96.4991410991405
 30
0.0
  0
VERTEX
  5
1188E
  8
LAYER_1
 10
76.05131288598363
 20
96.4991410991405
 30
0.0
  0
VERTEX
  5
1188F
  8
LAYER_1
 10
76.05131288598363
 20
110.4991410991405
 30
0.0
  0
SEQEND
  5
119E9
  8
LAYER_1
  0
POLYLINE
  5
116C9
  8
LAYER_1
 66
     1
 10
0.0
 20
0.0
 30
0.0
  0
VERTEX
  5
11890
  8
LAYER_1
 10
95.05131288598363
 20
110.4991410991405
 30
0.0
  0
VERTEX
  5
11891
  8
LAYER_1
 10
109.0513128859836
 20
110.4991410991405
 30
0.0
  0
VERTEX
  5
11892
  8
LAYER_1
 10
109.0513128859836
 20
96.4991410991405
 30
0.0
  0
VERTEX
  5
11893
  8
LAYER_1
 10
95.05131288598363
 20
96.4991410991405
 30
0.0
  0
VERTEX
  5
11894
  8
LAYER_1
 10
95.05131288598363
 20
110.4991410991405
 30
0.0
  0
SEQEND
  5
119EA
  8
LAYER_1
  0
POLYLINE
  5
116CA
  8
LAYER_1
 66
     1
 10
0.0
 20
0.0
 30
0.0
  0
VERTEX
  5
11895
  8
LAYER_1
 10
114.0513128859836
 20
110.4991410991405
 30
0.0
  0
VERTEX
  5
11896
  8
LAYER_1
 10
128.0513128859836
 20
110.4991410991405
 30
0.0
  0
VERTEX
  5
11897
  8
LAYER_1
 10
128.0513128859836
 20
96.4991410991405
 30
0.0
  0
VERTEX
  5
11898
  8
LAYER_1
 10
114.0513128859836
 20
96.4991410991405
 30
0.0
  0
VERTEX
  5
11899
  8
LAYER_1
 10
114.0513128859836
 20
110.4991410991405
 30
0.0
  0
SEQEND
  5
119EB
  8
LAYER_1
  0
POLYLINE
  5
116CB
  8
LAYER_1
 66
     1
 10
0.0
 20
0.0
 30
0.0
  0
VERTEX
  5
1189A
  8
LAYER_1
 10
133.0513128859836
 20
110.4991410991405
 30
0.0
  0
VERTEX
  5
1189B
  8
LAYER_1
 10
147.0513128859836
 20
110.4991410991405
 30
0.0
  0
VERTEX
  5
1189C
  8
LAYER_1
 10
147.0513128859836
 20
96.4991410991405
 30
0.0
  0
VERTEX
  5
1189D
  8
LAYER_1
 10
133.0513128859836
 20
96.4991410991405
 30
0.0
  0
VERTEX
  5
1189E
  8
LAYER_1
 10
133.0513128859836
 20
110.4991410991405
 30
0.0
  0
SEQEND
  5
119EC
  8
LAYER_1
  0
POLYLINE
  5
116CC
  8
LAYER_1
 66
     1
 10
0.0
 20
0.0
 30
0.0
  0
VERTEX
  5
1189F
  8
LAYER_1
 10
152.0513128859836
 20
110.4991410991405
 30
0.0
  0
VERTEX
  5
118A0
  8
LAYER_1
 10
166.0513128859836
 20
110.4991410991405
 30
0.0
  0
VERTEX
  5
118A1
  8
LAYER_1
 10
166.0513128859836
 20
96.4991410991405
 30
0.0
  0
VERTEX
  5
118A2
  8
LAYER_1
 10
152.0513128859836
 20
96.4991410991405
 30
0.0
  0
VERTEX
  5
118A3
  8
LAYER_1
 10
152.0513128859836
 20
110.4991410991405
 30
0.0
  0
SEQEND
  5
119ED
  8
LAYER_1
  0
POLYLINE
  5
116CD
  8
LAYER_1
 66
     1
 10
0.0
 20
0.0
 30
0.0
  0
VERTEX
  5
118A4
  8
LAYER_1
 10
171.0513128859836
 20
110.4991410991405
 30
0.0
  0
VERTEX
  5
118A5
  8
LAYER_1
 10
185.0513128859837
 20
110.4991410991405
 30
0.0
  0
VERTEX
  5
118A6
  8
LAYER_1
 10
185.0513128859837
 20
96.4991410991405
 30
0.0
  0
VERTEX
  5
118A7
  8
LAYER_1
 10
171.0513128859836
 20
96.4991410991405
 30
0.0
  0
VERTEX
  5
118A8
  8
LAYER_1
 10
171.0513128859836
 20
110.4991410991405
 30
0.0
  0
SEQEND
  5
119EE
  8
LAYER_1
  0
POLYLINE
  5
116CE
  8
LAYER_1
 66
     1
 10
0.0
 20
0.0
 30
0.0
  0
VERTEX
  5
118A9
  8
LAYER_1
 10
190.0513128859837
 20
110.4991410991405
 30
0.0
  0
VERTEX
  5
118AA
  8
LAYER_1
 10
204.0513128859837
 20
110.4991410991405
 30
0.0
  0
VERTEX
  5
118AB
  8
LAYER_1
 10
204.0513128859837
 20
96.4991410991405
 30
0.0
  0
VERTEX
  5
118AC
  8
LAYER_1
 10
190.0513128859837
 20
96.4991410991405
 30
0.0
  0
VERTEX
  5
118AD
  8
LAYER_1
 10
190.0513128859837
 20
110.4991410991405
 30
0.0
  0
SEQEND
  5
119EF
  8
LAYER_1
  0
POLYLINE
  5
116CF
  8
LAYER_1
 66
     1
 10
0.0
 20
0.0
 30
0.0
  0
VERTEX
  5
118AE
  8
LAYER_1
 10
209.0513128859837
 20
110.4991410991405
 30
0.0
  0
VERTEX
  5
118AF
  8
LAYER_1
 10
223.0513128859837
 20
110.4991410991405
 30
0.0
  0
VERTEX
  5
118B0
  8
LAYER_1
 10
223.0513128859837
 20
96.4991410991405
 30
0.0
  0
VERTEX
  5
118B1
  8
LAYER_1
 10
209.0513128859837
 20
96.4991410991405
 30
0.0
  0
VERTEX
  5
118B2
  8
LAYER_1
 10
209.0513128859837
 20
110.4991410991405
 30
0.0
  0
SEQEND
  5
119F0
  8
LAYER_1
  0
POLYLINE
  5
116D0
  8
LAYER_1
 66
     1
 10
0.0
 20
0.0
 30
0.0
  0
VERTEX
  5
118B3
  8
LAYER_1
 10
228.0513128859837
 20
110.4991410991405
 30
0.0
  0
VERTEX
  5
118B4
  8
LAYER_1
 10
242.0513128859836
 20
110.4991410991405
 30
0.0
  0
VERTEX
  5
118B5
  8
LAYER_1
 10
242.0513128859836
 20
96.4991410991405
 30
0.0
  0
VERTEX
  5
118B6
  8
LAYER_1
 10
228.0513128859837
 20
96.4991410991405
 30
0.0
  0
VERTEX
  5
118B7
  8
LAYER_1
 10
228.0513128859837
 20
110.4991410991405
 30
0.0
  0
SEQEND
  5
119F1
  8
LAYER_1
  0
POLYLINE
  5
116D1
  8
LAYER_1
 66
     1
 10
0.0
 20
0.0
 30
0.0
  0
VERTEX
  5
118B8
  8
LAYER_1
 10
247.0513128859836
 20
110.4991410991405
 30
0.0
  0
VERTEX
  5
118B9
  8
LAYER_1
 10
261.0513128859836
 20
110.4991410991405
 30
0.0
  0
VERTEX
  5
118BA
  8
LAYER_1
 10
261.0513128859836
 20
96.4991410991405
 30
0.0
  0
VERTEX
  5
118BB
  8
LAYER_1
 10
247.0513128859836
 20
96.4991410991405
 30
0.0
  0
VERTEX
  5
118BC
  8
LAYER_1
 10
247.0513128859836
 20
110.4991410991405
 30
0.0
  0
SEQEND
  5
119F2
  8
LAYER_1
  0
POLYLINE
  5
116D2
  8
LAYER_1
 66
     1
 10
0.0
 20
0.0
 30
0.0
  0
VERTEX
  5
118BD
  8
LAYER_1
 10
266.0513128859836
 20
110.4991410991405
 30
0.0
  0
VERTEX
  5
118BE
  8
LAYER_1
 10
280.0513128859836
 20
110.4991410991405
 30
0.0
  0
VERTEX
  5
118BF
  8
LAYER_1
 10
280.0513128859836
 20
96.4991410991405
 30
0.0
  0
VERTEX
  5
118C0
  8
LAYER_1
 10
266.0513128859836
 20
96.4991410991405
 30
0.0
  0
VERTEX
  5
118C1
  8
LAYER_1
 10
266.0513128859836
 20
110.4991410991405
 30
0.0
  0
SEQEND
  5
119F3
  8
LAYER_1
  0
POLYLINE
  5
116D3
  8
LAYER_1
 66
     1
 10
0.0
 20
0.0
 30
0.0
  0
VERTEX
  5
118C2
  8
LAYER_1
 10
285.0513128859836
 20
110.4991410991405
 30
0.0
  0
VERTEX
  5
118C3
  8
LAYER_1
 10
299.0513128859836
 20
110.4991410991405
 30
0.0
  0
VERTEX
  5
118C4
  8
LAYER_1
 10
299.0513128859836
 20
96.4991410991405
 30
0.0
  0
VERTEX
  5
118C5
  8
LAYER_1
 10
285.0513128859836
 20
96.4991410991405
 30
0.0
  0
VERTEX
  5
118C6
  8
LAYER_1
 10
285.0513128859836
 20
110.4991410991405
 30
0.0
  0
SEQEND
  5
119F4
  8
LAYER_1
  0
POLYLINE
  5
116D4
  8
LAYER_1
 66
     1
 10
0.0
 20
0.0
 30
0.0
  0
VERTEX
  5
118C7
  8
LAYER_1
 10
23.80131288598363
 20
91.4991410991405
 30
0.0
  0
VERTEX
  5
118C8
  8
LAYER_1
 10
37.80131288598363
 20
91.4991410991405
 30
0.0
  0
VERTEX
  5
118C9
  8
LAYER_1
 10
37.80131288598363
 20
77.4991410991405
 30
0.0
  0
VERTEX
  5
118CA
  8
LAYER_1
 10
23.80131288598363
 20
77.4991410991405
 30
0.0
  0
VERTEX
  5
118CB
  8
LAYER_1
 10
23.80131288598363
 20
91.4991410991405
 30
0.0
  0
SEQEND
  5
119F5
  8
LAYER_1
  0
POLYLINE
  5
116D5
  8
LAYER_1
 66
     1
 10
0.0
 20
0.0
 30
0.0
  0
VERTEX
  5
118CC
  8
LAYER_1
 10
280.3013128859836
 20
91.4991410991405
 30
0.0
  0
VERTEX
  5
118CD
  8
LAYER_1
 10
294.3013128859836
 20
91.4991410991405
 30
0.0
  0
VERTEX
  5
118CE
  8
LAYER_1
 10
294.3013128859836
 20
77.4991410991405
 30
0.0
  0
VERTEX
  5
118CF
  8
LAYER_1
 10
280.3013128859836
 20
77.4991410991405
 30
0.0
  0
VERTEX
  5
118D0
  8
LAYER_1
 10
280.3013128859836
 20
91.4991410991405
 30
0.0
  0
SEQEND
  5
119F6
  8
LAYER_1
  0
POLYLINE
  5
116D6
  8
LAYER_1
 66
     1
 10
0.0
 20
0.0
 30
0.0
  0
VERTEX
  5
118D1
  8
LAYER_1
 10
47.55131288598363
 20
91.4991410991405
 30
0.0
  0
VERTEX
  5
118D2
  8
LAYER_1
 10
61.55131288598363
 20
91.4991410991405
 30
0.0
  0
VERTEX
  5
118D3
  8
LAYER_1
 10
61.55131288598363
 20
77.4991410991405
 30
0.0
  0
VERTEX
  5
118D4
  8
LAYER_1
 10
47.55131288598363
 20
77.4991410991405
 30
0.0
  0
VERTEX
  5
118D5
  8
LAYER_1
 10
47.55131288598363
 20
91.4991410991405
 30
0.0
  0
SEQEND
  5
119F7
  8
LAYER_1
  0
POLYLINE
  5
116D7
  8
LAYER_1
 66
     1
 10
0.0
 20
0.0
 30
0.0
  0
VERTEX
  5
118D6
  8
LAYER_1
 10
66.55131288598363
 20
91.4991410991405
 30
0.0
  0
VERTEX
  5
118D7
  8
LAYER_1
 10
80.55131288598363
 20
91.4991410991405
 30
0.0
  0
VERTEX
  5
118D8
  8
LAYER_1
 10
80.55131288598363
 20
77.4991410991405
 30
0.0
  0
VERTEX
  5
118D9
  8
LAYER_1
 10
66.55131288598363
 20
77.4991410991405
 30
0.0
  0
VERTEX
  5
118DA
  8
LAYER_1
 10
66.55131288598363
 20
91.4991410991405
 30
0.0
  0
SEQEND
  5
119F8
  8
LAYER_1
  0
POLYLINE
  5
116D8
  8
LAYER_1
 66
     1
 10
0.0
 20
0.0
 30
0.0
  0
VERTEX
  5
118DB
  8
LAYER_1
 10
85.55131288598363
 20
91.4991410991405
 30
0.0
  0
VERTEX
  5
118DC
  8
LAYER_1
 10
99.55131288598363
 20
91.4991410991405
 30
0.0
  0
VERTEX
  5
118DD
  8
LAYER_1
 10
99.55131288598363
 20
77.4991410991405
 30
0.0
  0
VERTEX
  5
118DE
  8
LAYER_1
 10
85.55131288598363
 20
77.4991410991405
 30
0.0
  0
VERTEX
  5
118DF
  8
LAYER_1
 10
85.55131288598363
 20
91.4991410991405
 30
0.0
  0
SEQEND
  5
119F9
  8
LAYER_1
  0
POLYLINE
  5
116D9
  8
LAYER_1
 66
     1
 10
0.0
 20
0.0
 30
0.0
  0
VERTEX
  5
118E0
  8
LAYER_1
 10
104.5513128859836
 20
91.4991410991405
 30
0.0
  0
VERTEX
  5
118E1
  8
LAYER_1
 10
118.5513128859836
 20
91.4991410991405
 30
0.0
  0
VERTEX
  5
118E2
  8
LAYER_1
 10
118.5513128859836
 20
77.4991410991405
 30
0.0
  0
VERTEX
  5
118E3
  8
LAYER_1
 10
104.5513128859836
 20
77.4991410991405
 30
0.0
  0
VERTEX
  5
118E4
  8
LAYER_1
 10
104.5513128859836
 20
91.4991410991405
 30
0.0
  0
SEQEND
  5
119FA
  8
LAYER_1
  0
POLYLINE
  5
116DA
  8
LAYER_1
 66
     1
 10
0.0
 20
0.0
 30
0.0
  0
VERTEX
  5
118E5
  8
LAYER_1
 10
123.5513128859836
 20
91.4991410991405
 30
0.0
  0
VERTEX
  5
118E6
  8
LAYER_1
 10
137.5513128859836
 20
91.4991410991405
 30
0.0
  0
VERTEX
  5
118E7
  8
LAYER_1
 10
137.5513128859836
 20
77.4991410991405
 30
0.0
  0
VERTEX
  5
118E8
  8
LAYER_1
 10
123.5513128859836
 20
77.4991410991405
 30
0.0
  0
VERTEX
  5
118E9
  8
LAYER_1
 10
123.5513128859836
 20
91.4991410991405
 30
0.0
  0
SEQEND
  5
119FB
  8
LAYER_1
  0
POLYLINE
  5
116DB
  8
LAYER_1
 66
     1
 10
0.0
 20
0.0
 30
0.0
  0
VERTEX
  5
118EA
  8
LAYER_1
 10
142.5513128859836
 20
91.4991410991405
 30
0.0
  0
VERTEX
  5
118EB
  8
LAYER_1
 10
156.5513128859836
 20
91.4991410991405
 30
0.0
  0
VERTEX
  5
118EC
  8
LAYER_1
 10
156.5513128859836
 20
77.4991410991405
 30
0.0
  0
VERTEX
  5
118ED
  8
LAYER_1
 10
142.5513128859836
 20
77.4991410991405
 30
0.0
  0
VERTEX
  5
118EE
  8
LAYER_1
 10
142.5513128859836
 20
91.4991410991405
 30
0.0
  0
SEQEND
  5
119FC
  8
LAYER_1
  0
POLYLINE
  5
116DC
  8
LAYER_1
 66
     1
 10
0.0
 20
0.0
 30
0.0
  0
VERTEX
  5
118EF
  8
LAYER_1
 10
161.5513128859836
 20
91.4991410991405
 30
0.0
  0
VERTEX
  5
118F0
  8
LAYER_1
 10
175.5513128859837
 20
91.4991410991405
 30
0.0
  0
VERTEX
  5
118F1
  8
LAYER_1
 10
175.5513128859837
 20
77.4991410991405
 30
0.0
  0
VERTEX
  5
118F2
  8
LAYER_1
 10
161.5513128859836
 20
77.4991410991405
 30
0.0
  0
VERTEX
  5
118F3
  8
LAYER_1
 10
161.5513128859836
 20
91.4991410991405
 30
0.0
  0
SEQEND
  5
119FD
  8
LAYER_1
  0
POLYLINE
  5
116DD
  8
LAYER_1
 66
     1
 10
0.0
 20
0.0
 30
0.0
  0
VERTEX
  5
118F4
  8
LAYER_1
 10
180.5513128859837
 20
91.4991410991405
 30
0.0
  0
VERTEX
  5
118F5
  8
LAYER_1
 10
194.5513128859837
 20
91.4991410991405
 30
0.0
  0
VERTEX
  5
118F6
  8
LAYER_1
 10
194.5513128859837
 20
77.4991410991405
 30
0.0
  0
VERTEX
  5
118F7
  8
LAYER_1
 10
180.5513128859837
 20
77.4991410991405
 30
0.0
  0
VERTEX
  5
118F8
  8
LAYER_1
 10
180.5513128859837
 20
91.4991410991405
 30
0.0
  0
SEQEND
  5
119FE
  8
LAYER_1
  0
POLYLINE
  5
116DE
  8
LAYER_1
 66
     1
 10
0.0
 20
0.0
 30
0.0
  0
VERTEX
  5
118F9
  8
LAYER_1
 10
199.5513128859837
 20
91.4991410991405
 30
0.0
  0
VERTEX
  5
118FA
  8
LAYER_1
 10
213.5513128859837
 20
91.4991410991405
 30
0.0
  0
VERTEX
  5
118FB
  8
LAYER_1
 10
213.5513128859837
 20
77.4991410991405
 30
0.0
  0
VERTEX
  5
118FC
  8
LAYER_1
 10
199.5513128859837
 20
77.4991410991405
 30
0.0
  0
VERTEX
  5
118FD
  8
LAYER_1
 10
199.5513128859837
 20
91.4991410991405
 30
0.0
  0
SEQEND
  5
119FF
  8
LAYER_1
  0
POLYLINE
  5
116DF
  8
LAYER_1
 66
     1
 10
0.0
 20
0.0
 30
0.0
  0
VERTEX
  5
118FE
  8
LAYER_1
 10
218.5513128859837
 20
91.4991410991405
 30
0.0
  0
VERTEX
  5
118FF
  8
LAYER_1
 10
232.5513128859836
 20
91.4991410991405
 30
0.0
  0
VERTEX
  5
11900
  8
LAYER_1
 10
232.5513128859836
 20
77.4991410991405
 30
0.0
  0
VERTEX
  5
11901
  8
LAYER_1
 10
218.5513128859837
 20
77.4991410991405
 30
0.0
  0
VERTEX
  5
11902
  8
LAYER_1
 10
218.5513128859837
 20
91.4991410991405
 30
0.0
  0
SEQEND
  5
11A00
  8
LAYER_1
  0
POLYLINE
  5
116E0
  8
LAYER_1
 66
     1
 10
0.0
 20
0.0
 30
0.0
  0
VERTEX
  5
11903
  8
LAYER_1
 10
237.5513128859836
 20
91.4991410991405
 30
0.0
  0
VERTEX
  5
11904
  8
LAYER_1
 10
251.5513128859836
 20
91.4991410991405
 30
0.0
  0
VERTEX
  5
11905
  8
LAYER_1
 10
251.5513128859836
 20
77.4991410991405
 30
0.0
  0
VERTEX
  5
11906
  8
LAYER_1
 10
237.5513128859836
 20
77.4991410991405
 30
0.0
  0
VERTEX
  5
11907
  8
LAYER_1
 10
237.5513128859836
 20
91.4991410991405
 30
0.0
  0
SEQEND
  5
11A01
  8
LAYER_1
  0
POLYLINE
  5
116E1
  8
LAYER_1
 66
     1
 10
0.0
 20
0.0
 30
0.0
  0
VERTEX
  5
11908
  8
LAYER_1
 10
256.5513128859836
 20
91.4991410991405
 30
0.0
  0
VERTEX
  5
11909
  8
LAYER_1
 10
270.5513128859836
 20
91.4991410991405
 30
0.0
  0
VERTEX
  5
1190A
  8
LAYER_1
 10
270.5513128859836
 20
77.4991410991405
 30
0.0
  0
VERTEX
  5
1190B
  8
LAYER_1
 10
256.5513128859836
 20
77.4991410991405
 30
0.0
  0
VERTEX
  5
1190C
  8
LAYER_1
 10
256.5513128859836
 20
91.4991410991405
 30
0.0
  0
SEQEND
  5
11A02
  8
LAYER_1
  0
POLYLINE
  5
116E2
  8
LAYER_1
 66
     1
 10
0.0
 20
0.0
 30
0.0
  0
VERTEX
  5
1190D
  8
LAYER_1
 10
57.05131288598363
 20
53.4991410991405
 30
0.0
  0
VERTEX
  5
1190E
  8
LAYER_1
 10
71.05131288598363
 20
53.4991410991405
 30
0.0
  0
VERTEX
  5
1190F
  8
LAYER_1
 10
71.05131288598363
 20
39.4991410991405
 30
0.0
  0
VERTEX
  5
11910
  8
LAYER_1
 10
57.05131288598363
 20
39.4991410991405
 30
0.0
  0
VERTEX
  5
11911
  8
LAYER_1
 10
57.05131288598363
 20
53.4991410991405
 30
0.0
  0
SEQEND
  5
11A03
  8
LAYER_1
  0
POLYLINE
  5
116E3
  8
LAYER_1
 66
     1
 10
0.0
 20
0.0
 30
0.0
  0
VERTEX
  5
11912
  8
LAYER_1
 10
76.05131288598363
 20
53.4991410991405
 30
0.0
  0
VERTEX
  5
11913
  8
LAYER_1
 10
90.05131288598363
 20
53.4991410991405
 30
0.0
  0
VERTEX
  5
11914
  8
LAYER_1
 10
90.05131288598363
 20
39.4991410991405
 30
0.0
  0
VERTEX
  5
11915
  8
LAYER_1
 10
76.05131288598363
 20
39.4991410991405
 30
0.0
  0
VERTEX
  5
11916
  8
LAYER_1
 10
76.05131288598363
 20
53.4991410991405
 30
0.0
  0
SEQEND
  5
11A04
  8
LAYER_1
  0
POLYLINE
  5
116E4
  8
LAYER_1
 66
     1
 10
0.0
 20
0.0
 30
0.0
  0
VERTEX
  5
11917
  8
LAYER_1
 10
95.05131288598363
 20
53.4991410991405
 30
0.0
  0
VERTEX
  5
11918
  8
LAYER_1
 10
109.0513128859836
 20
53.4991410991405
 30
0.0
  0
VERTEX
  5
11919
  8
LAYER_1
 10
109.0513128859836
 20
39.4991410991405
 30
0.0
  0
VERTEX
  5
1191A
  8
LAYER_1
 10
95.05131288598363
 20
39.4991410991405
 30
0.0
  0
VERTEX
  5
1191B
  8
LAYER_1
 10
95.05131288598363
 20
53.4991410991405
 30
0.0
  0
SEQEND
  5
11A05
  8
LAYER_1
  0
POLYLINE
  5
116E5
  8
LAYER_1
 66
     1
 10
0.0
 20
0.0
 30
0.0
  0
VERTEX
  5
1191C
  8
LAYER_1
 10
114.0513128859836
 20
53.4991410991405
 30
0.0
  0
VERTEX
  5
1191D
  8
LAYER_1
 10
128.0513128859836
 20
53.4991410991405
 30
0.0
  0
VERTEX
  5
1191E
  8
LAYER_1
 10
128.0513128859836
 20
39.4991410991405
 30
0.0
  0
VERTEX
  5
1191F
  8
LAYER_1
 10
114.0513128859836
 20
39.4991410991405
 30
0.0
  0
VERTEX
  5
11920
  8
LAYER_1
 10
114.0513128859836
 20
53.4991410991405
 30
0.0
  0
SEQEND
  5
11A06
  8
LAYER_1
  0
POLYLINE
  5
116E6
  8
LAYER_1
 66
     1
 10
0.0
 20
0.0
 30
0.0
  0
VERTEX
  5
11921
  8
LAYER_1
 10
133.0513128859836
 20
53.4991410991405
 30
0.0
  0
VERTEX
  5
11922
  8
LAYER_1
 10
147.0513128859836
 20
53.4991410991405
 30
0.0
  0
VERTEX
  5
11923
  8
LAYER_1
 10
147.0513128859836
 20
39.4991410991405
 30
0.0
  0
VERTEX
  5
11924
  8
LAYER_1
 10
133.0513128859836
 20
39.4991410991405
 30
0.0
  0
VERTEX
  5
11925
  8
LAYER_1
 10
133.0513128859836
 20
53.4991410991405
 30
0.0
  0
SEQEND
  5
11A07
  8
LAYER_1
  0
POLYLINE
  5
116E7
  8
LAYER_1
 66
     1
 10
0.0
 20
0.0
 30
0.0
  0
VERTEX
  5
11926
  8
LAYER_1
 10
152.0513128859836
 20
53.4991410991405
 30
0.0
  0
VERTEX
  5
11927
  8
LAYER_1
 10
166.0513128859836
 20
53.4991410991405
 30
0.0
  0
VERTEX
  5
11928
  8
LAYER_1
 10
166.0513128859836
 20
39.4991410991405
 30
0.0
  0
VERTEX
  5
11929
  8
LAYER_1
 10
152.0513128859836
 20
39.4991410991405
 30
0.0
  0
VERTEX
  5
1192A
  8
LAYER_1
 10
152.0513128859836
 20
53.4991410991405
 30
0.0
  0
SEQEND
  5
11A08
  8
LAYER_1
  0
POLYLINE
  5
116E8
  8
LAYER_1
 66
     1
 10
0.0
 20
0.0
 30
0.0
  0
VERTEX
  5
1192B
  8
LAYER_1
 10
171.0513128859836
 20
53.4991410991405
 30
0.0
  0
VERTEX
  5
1192C
  8
LAYER_1
 10
185.0513128859837
 20
53.4991410991405
 30
0.0
  0
VERTEX
  5
1192D
  8
LAYER_1
 10
185.0513128859837
 20
39.4991410991405
 30
0.0
  0
VERTEX
  5
1192E
  8
LAYER_1
 10
171.0513128859836
 20
39.4991410991405
 30
0.0
  0
VERTEX
  5
1192F
  8
LAYER_1
 10
171.0513128859836
 20
53.4991410991405
 30
0.0
  0
SEQEND
  5
11A09
  8
LAYER_1
  0
POLYLINE
  5
116E9
  8
LAYER_1
 66
     1
 10
0.0
 20
0.0
 30
0.0
  0
VERTEX
  5
11930
  8
LAYER_1
 10
190.0513128859837
 20
53.4991410991405
 30
0.0
  0
VERTEX
  5
11931
  8
LAYER_1
 10
204.0513128859837
 20
53.4991410991405
 30
0.0
  0
VERTEX
  5
11932
  8
LAYER_1
 10
204.0513128859837
 20
39.4991410991405
 30
0.0
  0
VERTEX
  5
11933
  8
LAYER_1
 10
190.0513128859837
 20
39.4991410991405
 30
0.0
  0
VERTEX
  5
11934
  8
LAYER_1
 10
190.0513128859837
 20
53.4991410991405
 30
0.0
  0
SEQEND
  5
11A0A
  8
LAYER_1
  0
POLYLINE
  5
116EA
  8
LAYER_1
 66
     1
 10
0.0
 20
0.0
 30
0.0
  0
VERTEX
  5
11935
  8
LAYER_1
 10
209.0513128859837
 20
53.4991410991405
 30
0.0
  0
VERTEX
  5
11936
  8
LAYER_1
 10
223.0513128859837
 20
53.4991410991405
 30
0.0
  0
VERTEX
  5
11937
  8
LAYER_1
 10
223.0513128859837
 20
39.4991410991405
 30
0.0
  0
VERTEX
  5
11938
  8
LAYER_1
 10
209.0513128859837
 20
39.4991410991405
 30
0.0
  0
VERTEX
  5
11939
  8
LAYER_1
 10
209.0513128859837
 20
53.4991410991405
 30
0.0
  0
SEQEND
  5
11A0B
  8
LAYER_1
  0
POLYLINE
  5
116EB
  8
LAYER_1
 66
     1
 10
0.0
 20
0.0
 30
0.0
  0
VERTEX
  5
1193A
  8
LAYER_1
 10
228.0513128859837
 20
53.4991410991405
 30
0.0
  0
VERTEX
  5
1193B
  8
LAYER_1
 10
242.0513128859836
 20
53.4991410991405
 30
0.0
  0
VERTEX
  5
1193C
  8
LAYER_1
 10
242.0513128859836
 20
39.4991410991405
 30
0.0
  0
VERTEX
  5
1193D
  8
LAYER_1
 10
228.0513128859837
 20
39.4991410991405
 30
0.0
  0
VERTEX
  5
1193E
  8
LAYER_1
 10
228.0513128859837
 20
53.4991410991405
 30
0.0
  0
SEQEND
  5
11A0C
  8
LAYER_1
  0
POLYLINE
  5
116EC
  8
LAYER_1
 66
     1
 10
0.0
 20
0.0
 30
0.0
  0
VERTEX
  5
1193F
  8
LAYER_1
 10
247.0513128859836
 20
53.4991410991405
 30
0.0
  0
VERTEX
  5
11940
  8
LAYER_1
 10
261.0513128859836
 20
53.4991410991405
 30
0.0
  0
VERTEX
  5
11941
  8
LAYER_1
 10
261.0513128859836
 20
39.4991410991405
 30
0.0
  0
VERTEX
  5
11942
  8
LAYER_1
 10
247.0513128859836
 20
39.4991410991405
 30
0.0
  0
VERTEX
  5
11943
  8
LAYER_1
 10
247.0513128859836
 20
53.4991410991405
 30
0.0
  0
SEQEND
  5
11A0D
  8
LAYER_1
  0
POLYLINE
  5
116ED
  8
LAYER_1
 66
     1
 10
0.0
 20
0.0
 30
0.0
  0
VERTEX
  5
11944
  8
LAYER_1
 10
266.0513128859836
 20
53.4991410991405
 30
0.0
  0
VERTEX
  5
11945
  8
LAYER_1
 10
280.0513128859836
 20
53.4991410991405
 30
0.0
  0
VERTEX
  5
11946
  8
LAYER_1
 10
280.0513128859836
 20
39.4991410991405
 30
0.0
  0
VERTEX
  5
11947
  8
LAYER_1
 10
266.0513128859836
 20
39.4991410991405
 30
0.0
  0
VERTEX
  5
11948
  8
LAYER_1
 10
266.0513128859836
 20
53.4991410991405
 30
0.0
  0
SEQEND
  5
11A0E
  8
LAYER_1
  0
POLYLINE
  5
116EE
  8
LAYER_1
 66
     1
 10
0.0
 20
0.0
 30
0.0
  0
VERTEX
  5
11949
  8
LAYER_1
 10
285.0513128859836
 20
53.4991410991405
 30
0.0
  0
VERTEX
  5
1194A
  8
LAYER_1
 10
299.0513128859836
 20
53.4991410991405
 30
0.0
  0
VERTEX
  5
1194B
  8
LAYER_1
 10
299.0513128859836
 20
39.4991410991405
 30
0.0
  0
VERTEX
  5
1194C
  8
LAYER_1
 10
285.0513128859836
 20
39.4991410991405
 30
0.0
  0
VERTEX
  5
1194D
  8
LAYER_1
 10
285.0513128859836
 20
53.4991410991405
 30
0.0
  0
SEQEND
  5
11A0F
  8
LAYER_1
  0
POLYLINE
  5
116EF
  8
LAYER_1
 66
     1
 10
0.0
 20
0.0
 30
0.0
  0
VERTEX
  5
1194E
  8
LAYER_1
 10
26.17631288598363
 20
72.4991410991405
 30
0.0
  0
VERTEX
  5
1194F
  8
LAYER_1
 10
40.17631288598363
 20
72.4991410991405
 30
0.0
  0
VERTEX
  5
11950
  8
LAYER_1
 10
40.17631288598363
 20
58.4991410991405
 30
0.0
  0
VERTEX
  5
11951
  8
LAYER_1
 10
26.17631288598363
 20
58.4991410991405
 30
0.0
  0
VERTEX
  5
11952
  8
LAYER_1
 10
26.17631288598363
 20
72.4991410991405
 30
0.0
  0
SEQEND
  5
11A10
  8
LAYER_1
  0
POLYLINE
  5
116F0
  8
LAYER_1
 66
     1
 10
0.0
 20
0.0
 30
0.0
  0
VERTEX
  5
11953
  8
LAYER_1
 10
28.55131288598363
 20
53.4991410991405
 30
0.0
  0
VERTEX
  5
11954
  8
LAYER_1
 10
42.55131288598363
 20
53.4991410991405
 30
0.0
  0
VERTEX
  5
11955
  8
LAYER_1
 10
42.55131288598363
 20
39.4991410991405
 30
0.0
  0
VERTEX
  5
11956
  8
LAYER_1
 10
28.55131288598363
 20
39.4991410991405
 30
0.0
  0
VERTEX
  5
11957
  8
LAYER_1
 10
28.55131288598363
 20
53.4991410991405
 30
0.0
  0
SEQEND
  5
11A11
  8
LAYER_1
  0
POLYLINE
  5
116F1
  8
LAYER_1
  6
BYBLOCK
 66
     1
 10
0.0
 20
0.0
 30
0.0
 70
     1
  0
VERTEX
  5
11958
  8
LAYER_1
  6
BYBLOCK
 10
21.95131288598361
 20
52.7491410991405
 30
0.0
  0
VERTEX
  5
11959
  8
LAYER_1
  6
BYBLOCK
 10
21.95131288598361
 20
38.7491410991405
 30
0.0
  0
VERTEX
  5
1195A
  8
LAYER_1
  6
BYBLOCK
 10
25.25131288598362
 20
38.7491410991405
 30
0.0
  0
VERTEX
  5
1195B
  8
LAYER_1
  6
BYBLOCK
 10
25.25131288598362
 20
52.7491410991405
 30
0.0
  0
SEQEND
  5
11A12
  8
LAYER_1
  6
BYBLOCK
  0
POLYLINE
  5
116F2
  8
LAYER_1
  6
BYBLOCK
 66
     1
 10
0.0
 20
0.0
 30
0.0
 70
     1
  0
VERTEX
  5
1195C
  8
LAYER_1
  6
BYBLOCK
 10
45.85131288598365
 20
52.7491410991405
 30
0.0
  0
VERTEX
  5
1195D
  8
LAYER_1
  6
BYBLOCK
 10
45.85131288598365
 20
38.7491410991405
 30
0.0
  0
VERTEX
  5
1195E
  8
LAYER_1
  6
BYBLOCK
 10
49.1513128859836
 20
38.7491410991405
 30
0.0
  0
VERTEX
  5
1195F
  8
LAYER_1
  6
BYBLOCK
 10
49.1513128859836
 20
52.7491410991405
 30
0.0
  0
SEQEND
  5
11A13
  8
LAYER_1
  6
BYBLOCK
  0
POLYLINE
  5
116F3
  8
LAYER_1
 66
     1
 10
0.0
 20
0.0
 30
0.0
  0
VERTEX
  5
11960
  8
LAYER_1
 10
273.1763128859836
 20
72.4991410991405
 30
0.0
  0
VERTEX
  5
11961
  8
LAYER_1
 10
287.1763128859836
 20
72.4991410991405
 30
0.0
  0
VERTEX
  5
11962
  8
LAYER_1
 10
287.1763128859836
 20
58.4991410991405
 30
0.0
  0
VERTEX
  5
11963
  8
LAYER_1
 10
273.1763128859836
 20
58.4991410991405
 30
0.0
  0
VERTEX
  5
11964
  8
LAYER_1
 10
273.1763128859836
 20
72.4991410991405
 30
0.0
  0
SEQEND
  5
11A14
  8
LAYER_1
  0
POLYLINE
  5
116F4
  8
LAYER_1
  6
BYBLOCK
 66
     1
 10
0.0
 20
0.0
 30
0.0
 70
     1
  0
VERTEX
  5
11965
  8
LAYER_1
  6
BYBLOCK
 10
266.5763128859836
 20
71.7491410991405
 30
0.0
  0
VERTEX
  5
11966
  8
LAYER_1
  6
BYBLOCK
 10
266.5763128859836
 20
57.7491410991405
 30
0.0
  0
VERTEX
  5
11967
  8
LAYER_1
  6
BYBLOCK
 10
269.8763128859836
 20
57.7491410991405
 30
0.0
  0
VERTEX
  5
11968
  8
LAYER_1
  6
BYBLOCK
 10
269.8763128859836
 20
71.7491410991405
 30
0.0
  0
SEQEND
  5
11A15
  8
LAYER_1
  6
BYBLOCK
  0
POLYLINE
  5
116F5
  8
LAYER_1
  6
BYBLOCK
 66
     1
 10
0.0
 20
0.0
 30
0.0
 70
     1
  0
VERTEX
  5
11969
  8
LAYER_1
  6
BYBLOCK
 10
290.4763128859836
 20
71.7491410991405
 30
0.0
  0
VERTEX
  5
1196A
  8
LAYER_1
  6
BYBLOCK
 10
290.4763128859836
 20
57.7491410991405
 30
0.0
  0
VERTEX
  5
1196B
  8
LAYER_1
  6
BYBLOCK
 10
293.7763128859835
 20
57.7491410991405
 30
0.0
  0
VERTEX
  5
1196C
  8
LAYER_1
  6
BYBLOCK
 10
293.7763128859835
 20
71.7491410991405
 30
0.0
  0
SEQEND
  5
11A16
  8
LAYER_1
  6
BYBLOCK
  0
POLYLINE
  5
116F6
  8
LAYER_1
 66
     1
 10
0.0
 20
0.0
 30
0.0
  0
VERTEX
  5
1196D
  8
LAYER_1
 10
52.30131288598363
 20
72.4991410991405
 30
0.0
  0
VERTEX
  5
1196E
  8
LAYER_1
 10
66.30131288598363
 20
72.4991410991405
 30
0.0
  0
VERTEX
  5
1196F
  8
LAYER_1
 10
66.30131288598363
 20
58.4991410991405
 30
0.0
  0
VERTEX
  5
11970
  8
LAYER_1
 10
52.30131288598363
 20
58.4991410991405
 30
0.0
  0
VERTEX
  5
11971
  8
LAYER_1
 10
52.30131288598363
 20
72.4991410991405
 30
0.0
  0
SEQEND
  5
11A17
  8
LAYER_1
  0
POLYLINE
  5
116F7
  8
LAYER_1
 66
     1
 10
0.0
 20
0.0
 30
0.0
  0
VERTEX
  5
11972
  8
LAYER_1
 10
71.30131288598363
 20
72.4991410991405
 30
0.0
  0
VERTEX
  5
11973
  8
LAYER_1
 10
85.30131288598363
 20
72.4991410991405
 30
0.0
  0
VERTEX
  5
11974
  8
LAYER_1
 10
85.30131288598363
 20
58.4991410991405
 30
0.0
  0
VERTEX
  5
11975
  8
LAYER_1
 10
71.30131288598363
 20
58.4991410991405
 30
0.0
  0
VERTEX
  5
11976
  8
LAYER_1
 10
71.30131288598363
 20
72.4991410991405
 30
0.0
  0
SEQEND
  5
11A18
  8
LAYER_1
  0
POLYLINE
  5
116F8
  8
LAYER_1
 66
     1
 10
0.0
 20
0.0
 30
0.0
  0
VERTEX
  5
11977
  8
LAYER_1
 10
90.30131288598363
 20
72.4991410991405
 30
0.0
  0
VERTEX
  5
11978
  8
LAYER_1
 10
104.3013128859836
 20
72.4991410991405
 30
0.0
  0
VERTEX
  5
11979
  8
LAYER_1
 10
104.3013128859836
 20
58.4991410991405
 30
0.0
  0
VERTEX
  5
1197A
  8
LAYER_1
 10
90.30131288598363
 20
58.4991410991405
 30
0.0
  0
VERTEX
  5
1197B
  8
LAYER_1
 10
90.30131288598363
 20
72.4991410991405
 30
0.0
  0
SEQEND
  5
11A19
  8
LAYER_1
  0
POLYLINE
  5
116F9
  8
LAYER_1
 66
     1
 10
0.0
 20
0.0
 30
0.0
  0
VERTEX
  5
1197C
  8
LAYER_1
 10
109.3013128859836
 20
72.4991410991405
 30
0.0
  0
VERTEX
  5
1197D
  8
LAYER_1
 10
123.3013128859836
 20
72.4991410991405
 30
0.0
  0
VERTEX
  5
1197E
  8
LAYER_1
 10
123.3013128859836
 20
58.4991410991405
 30
0.0
  0
VERTEX
  5
1197F
  8
LAYER_1
 10
109.3013128859836
 20
58.4991410991405
 30
0.0
  0
VERTEX
  5
11980
  8
LAYER_1
 10
109.3013128859836
 20
72.4991410991405
 30
0.0
  0
SEQEND
  5
11A1A
  8
LAYER_1
  0
POLYLINE
  5
116FA
  8
LAYER_1
 66
     1
 10
0.0
 20
0.0
 30
0.0
  0
VERTEX
  5
11981
  8
LAYER_1
 10
128.3013128859836
 20
72.4991410991405
 30
0.0
  0
VERTEX
  5
11982
  8
LAYER_1
 10
142.3013128859836
 20
72.4991410991405
 30
0.0
  0
VERTEX
  5
11983
  8
LAYER_1
 10
142.3013128859836
 20
58.4991410991405
 30
0.0
  0
VERTEX
  5
11984
  8
LAYER_1
 10
128.3013128859836
 20
58.4991410991405
 30
0.0
  0
VERTEX
  5
11985
  8
LAYER_1
 10
128.3013128859836
 20
72.4991410991405
 30
0.0
  0
SEQEND
  5
11A1B
  8
LAYER_1
  0
POLYLINE
  5
116FB
  8
LAYER_1
 66
     1
 10
0.0
 20
0.0
 30
0.0
  0
VERTEX
  5
11986
  8
LAYER_1
 10
147.3013128859836
 20
72.4991410991405
 30
0.0
  0
VERTEX
  5
11987
  8
LAYER_1
 10
161.3013128859836
 20
72.4991410991405
 30
0.0
  0
VERTEX
  5
11988
  8
LAYER_1
 10
161.3013128859836
 20
58.4991410991405
 30
0.0
  0
VERTEX
  5
11989
  8
LAYER_1
 10
147.3013128859836
 20
58.4991410991405
 30
0.0
  0
VERTEX
  5
1198A
  8
LAYER_1
 10
147.3013128859836
 20
72.4991410991405
 30
0.0
  0
SEQEND
  5
11A1C
  8
LAYER_1
  0
POLYLINE
  5
116FC
  8
LAYER_1
 66
     1
 10
0.0
 20
0.0
 30
0.0
  0
VERTEX
  5
1198B
  8
LAYER_1
 10
166.3013128859836
 20
72.4991410991405
 30
0.0
  0
VERTEX
  5
1198C
  8
LAYER_1
 10
180.3013128859837
 20
72.4991410991405
 30
0.0
  0
VERTEX
  5
1198D
  8
LAYER_1
 10
180.3013128859837
 20
58.4991410991405
 30
0.0
  0
VERTEX
  5
1198E
  8
LAYER_1
 10
166.3013128859836
 20
58.4991410991405
 30
0.0
  0
VERTEX
  5
1198F
  8
LAYER_1
 10
166.3013128859836
 20
72.4991410991405
 30
0.0
  0
SEQEND
  5
11A1D
  8
LAYER_1
  0
POLYLINE
  5
116FD
  8
LAYER_1
 66
     1
 10
0.0
 20
0.0
 30
0.0
  0
VERTEX
  5
11990
  8
LAYER_1
 10
185.3013128859837
 20
72.4991410991405
 30
0.0
  0
VERTEX
  5
11991
  8
LAYER_1
 10
199.3013128859837
 20
72.4991410991405
 30
0.0
  0
VERTEX
  5
11992
  8
LAYER_1
 10
199.3013128859837
 20
58.4991410991405
 30
0.0
  0
VERTEX
  5
11993
  8
LAYER_1
 10
185.3013128859837
 20
58.4991410991405
 30
0.0
  0
VERTEX
  5
11994
  8
LAYER_1
 10
185.3013128859837
 20
72.4991410991405
 30
0.0
  0
SEQEND
  5
11A1E
  8
LAYER_1
  0
POLYLINE
  5
116FE
  8
LAYER_1
 66
     1
 10
0.0
 20
0.0
 30
0.0
  0
VERTEX
  5
11995
  8
LAYER_1
 10
204.3013128859837
 20
72.4991410991405
 30
0.0
  0
VERTEX
  5
11996
  8
LAYER_1
 10
218.3013128859837
 20
72.4991410991405
 30
0.0
  0
VERTEX
  5
11997
  8
LAYER_1
 10
218.3013128859837
 20
58.4991410991405
 30
0.0
  0
VERTEX
  5
11998
  8
LAYER_1
 10
204.3013128859837
 20
58.4991410991405
 30
0.0
  0
VERTEX
  5
11999
  8
LAYER_1
 10
204.3013128859837
 20
72.4991410991405
 30
0.0
  0
SEQEND
  5
11A1F
  8
LAYER_1
  0
POLYLINE
  5
116FF
  8
LAYER_1
 66
     1
 10
0.0
 20
0.0
 30
0.0
  0
VERTEX
  5
1199A
  8
LAYER_1
 10
223.3013128859837
 20
72.4991410991405
 30
0.0
  0
VERTEX
  5
1199B
  8
LAYER_1
 10
237.3013128859837
 20
72.4991410991405
 30
0.0
  0
VERTEX
  5
1199C
  8
LAYER_1
 10
237.3013128859837
 20
58.4991410991405
 30
0.0
  0
VERTEX
  5
1199D
  8
LAYER_1
 10
223.3013128859837
 20
58.4991410991405
 30
0.0
  0
VERTEX
  5
1199E
  8
LAYER_1
 10
223.3013128859837
 20
72.4991410991405
 30
0.0
  0
SEQEND
  5
11A20
  8
LAYER_1
  0
POLYLINE
  5
11700
  8
LAYER_1
 66
     1
 10
0.0
 20
0.0
 30
0.0
  0
VERTEX
  5
1199F
  8
LAYER_1
 10
242.3013128859836
 20
72.4991410991405
 30
0.0
  0
VERTEX
  5
119A0
  8
LAYER_1
 10
256.3013128859836
 20
72.4991410991405
 30
0.0
  0
VERTEX
  5
119A1
  8
LAYER_1
 10
256.3013128859836
 20
58.4991410991405
 30
0.0
  0
VERTEX
  5
119A2
  8
LAYER_1
 10
242.3013128859836
 20
58.4991410991405
 30
0.0
  0
VERTEX
  5
119A3
  8
LAYER_1
 10
242.3013128859836
 20
72.4991410991405
 30
0.0
  0
SEQEND
  5
11A21
  8
LAYER_1
  0
POLYLINE
  5
11701
  8
LAYER_1
 66
     1
 10
0.0
 20
0.0
 30
0.0
  0
VERTEX
  5
119A4
  8
LAYER_1
 10
19.05131288598363
 20
34.4991410991405
 30
0.0
  0
VERTEX
  5
119A5
  8
LAYER_1
 10
33.05131288598363
 20
34.4991410991405
 30
0.0
  0
VERTEX
  5
119A6
  8
LAYER_1
 10
33.05131288598363
 20
20.4991410991405
 30
0.0
  0
VERTEX
  5
119A7
  8
LAYER_1
 10
19.05131288598363
 20
20.4991410991405
 30
0.0
  0
VERTEX
  5
119A8
  8
LAYER_1
 10
19.05131288598363
 20
34.4991410991405
 30
0.0
  0
SEQEND
  5
11A22
  8
LAYER_1
  0
POLYLINE
  5
11702
  8
LAYER_1
 66
     1
 10
0.0
 20
0.0
 30
0.0
  0
VERTEX
  5
119A9
  8
LAYER_1
 10
38.05131288598363
 20
34.4991410991405
 30
0.0
  0
VERTEX
  5
119AA
  8
LAYER_1
 10
52.05131288598363
 20
34.4991410991405
 30
0.0
  0
VERTEX
  5
119AB
  8
LAYER_1
 10
52.05131288598363
 20
20.4991410991405
 30
0.0
  0
VERTEX
  5
119AC
  8
LAYER_1
 10
38.05131288598363
 20
20.4991410991405
 30
0.0
  0
VERTEX
  5
119AD
  8
LAYER_1
 10
38.05131288598363
 20
34.4991410991405
 30
0.0
  0
SEQEND
  5
11A23
  8
LAYER_1
  0
POLYLINE
  5
11703
  8
LAYER_1
 66
     1
 10
0.0
 20
0.0
 30
0.0
  0
VERTEX
  5
119AE
  8
LAYER_1
 10
59.42631288598363
 20
34.4991410991405
 30
0.0
  0
VERTEX
  5
119AF
  8
LAYER_1
 10
73.42631288598363
 20
34.4991410991405
 30
0.0
  0
VERTEX
  5
119B0
  8
LAYER_1
 10
73.42631288598363
 20
20.4991410991405
 30
0.0
  0
VERTEX
  5
119B1
  8
LAYER_1
 10
59.42631288598363
 20
20.4991410991405
 30
0.0
  0
VERTEX
  5
119B2
  8
LAYER_1
 10
59.42631288598363
 20
34.4991410991405
 30
0.0
  0
SEQEND
  5
11A24
  8
LAYER_1
  0
POLYLINE
  5
11704
  8
LAYER_1
 66
     1
 10
0.0
 20
0.0
 30
0.0
  0
VERTEX
  5
119B3
  8
LAYER_1
 10
130.6763128859837
 20
34.4991410991405
 30
0.0
  0
VERTEX
  5
119B4
  8
LAYER_1
 10
144.6763128859837
 20
34.4991410991405
 30
0.0
  0
VERTEX
  5
119B5
  8
LAYER_1
 10
144.6763128859837
 20
20.4991410991405
 30
0.0
  0
VERTEX
  5
119B6
  8
LAYER_1
 10
130.6763128859837
 20
20.4991410991405
 30
0.0
  0
VERTEX
  5
119B7
  8
LAYER_1
 10
130.6763128859837
 20
34.4991410991405
 30
0.0
  0
SEQEND
  5
11A25
  8
LAYER_1
  0
POLYLINE
  5
11705
  8
LAYER_1
  6
BYBLOCK
 66
     1
 10
0.0
 20
0.0
 30
0.0
 70
     1
  0
VERTEX
  5
119B8
  8
LAYER_1
  6
BYBLOCK
 10
88.37636157585587
 20
33.7491410991405
 30
0.0
  0
VERTEX
  5
119B9
  8
LAYER_1
  6
BYBLOCK
 10
88.37636157585587
 20
19.7491410991405
 30
0.0
  0
VERTEX
  5
119BA
  8
LAYER_1
  6
BYBLOCK
 10
91.67636157585588
 20
19.7491410991405
 30
0.0
  0
VERTEX
  5
119BB
  8
LAYER_1
  6
BYBLOCK
 10
91.67636157585588
 20
33.7491410991405
 30
0.0
  0
SEQEND
  5
11A26
  8
LAYER_1
  6
BYBLOCK
  0
POLYLINE
  5
11706
  8
LAYER_1
  6
BYBLOCK
 66
     1
 10
0.0
 20
0.0
 30
0.0
 70
     1
  0
VERTEX
  5
119BC
  8
LAYER_1
  6
BYBLOCK
 10
183.6763572756835
 20
33.7491410991405
 30
0.0
  0
VERTEX
  5
119BD
  8
LAYER_1
  6
BYBLOCK
 10
183.6763572756835
 20
19.7491410991405
 30
0.0
  0
VERTEX
  5
119BE
  8
LAYER_1
  6
BYBLOCK
 10
186.9763572756836
 20
19.7491410991405
 30
0.0
  0
VERTEX
  5
119BF
  8
LAYER_1
  6
BYBLOCK
 10
186.9763572756836
 20
33.7491410991405
 30
0.0
  0
SEQEND
  5
11A27
  8
LAYER_1
  6
BYBLOCK
  0
POLYLINE
  5
11707
  8
LAYER_1
 66
     1
 10
0.0
 20
0.0
 30
0.0
  0
VERTEX
  5
119C0
  8
LAYER_1
 10
130.6763128859837
 20
34.4991410991405
 30
0.0
  0
VERTEX
  5
119C1
  8
LAYER_1
 10
144.6763128859837
 20
34.4991410991405
 30
0.0
  0
VERTEX
  5
119C2
  8
LAYER_1
 10
144.6763128859837
 20
20.4991410991405
 30
0.0
  0
VERTEX
  5
119C3
  8
LAYER_1
 10
130.6763128859837
 20
20.4991410991405
 30
0.0
  0
VERTEX
  5
119C4
  8
LAYER_1
 10
130.6763128859837
 20
34.4991410991405
 30
0.0
  0
SEQEND
  5
11A28
  8
LAYER_1
  0
POLYLINE
  5
11708
  8
LAYER_1
  6
BYBLOCK
 66
     1
 10
0.0
 20
0.0
 30
0.0
 70
     1
  0
VERTEX
  5
119C5
  8
LAYER_1
  6
BYBLOCK
 10
88.37636157585587
 20
33.7491410991405
 30
0.0
  0
VERTEX
  5
119C6
  8
LAYER_1
  6
BYBLOCK
 10
88.37636157585587
 20
19.7491410991405
 30
0.0
  0
VERTEX
  5
119C7
  8
LAYER_1
  6
BYBLOCK
 10
91.67636157585588
 20
19.7491410991405
 30
0.0
  0
VERTEX
  5
119C8
  8
LAYER_1
  6
BYBLOCK
 10
91.67636157585588
 20
33.7491410991405
 30
0.0
  0
SEQEND
  5
11A29
  8
LAYER_1
  6
BYBLOCK
  0
POLYLINE
  5
11709
  8
LAYER_1
  6
BYBLOCK
 66
     1
 10
0.0
 20
0.0
 30
0.0
 70
     1
  0
VERTEX
  5
119C9
  8
LAYER_1
  6
BYBLOCK
 10
183.6763572756835
 20
33.7491410991405
 30
0.0
  0
VERTEX
  5
119CA
  8
LAYER_1
  6
BYBLOCK
 10
183.6763572756835
 20
19.7491410991405
 30
0.0
  0
VERTEX
  5
119CB
  8
LAYER_1
  6
BYBLOCK
 10
186.9763572756836
 20
19.7491410991405
 30
0.0
  0
VERTEX
  5
119CC
  8
LAYER_1
  6
BYBLOCK
 10
186.9763572756836
 20
33.7491410991405
 30
0.0
  0
SEQEND
  5
11A2A
  8
LAYER_1
  6
BYBLOCK
  0
POLYLINE
  5
1170A
  8
LAYER_1
 66
     1
 10
0.0
 20
0.0
 30
0.0
  0
VERTEX
  5
119CD
  8
LAYER_1
 10
201.9263128859837
 20
34.4991410991405
 30
0.0
  0
VERTEX
  5
119CE
  8
LAYER_1
 10
215.9263128859837
 20
34.4991410991405
 30
0.0
  0
VERTEX
  5
119CF
  8
LAYER_1
 10
215.9263128859837
 20
20.4991410991405
 30
0.0
  0
VERTEX
  5
119D0
  8
LAYER_1
 10
201.9263128859837
 20
20.4991410991405
 30
0.0
  0
VERTEX
  5
119D1
  8
LAYER_1
 10
201.9263128859837
 20
34.4991410991405
 30
0.0
  0
SEQEND
  5
11A2B
  8
LAYER_1
  0
POLYLINE
  5
1170B
  8
LAYER_1
 66
     1
 10
0.0
 20
0.0
 30
0.0
  0
VERTEX
  5
119D2
  8
LAYER_1
 10
225.6763128859837
 20
34.4991410991405
 30
0.0
  0
VERTEX
  5
119D3
  8
LAYER_1
 10
239.6763128859837
 20
34.4991410991405
 30
0.0
  0
VERTEX
  5
119D4
  8
LAYER_1
 10
239.6763128859837
 20
20.4991410991405
 30
0.0
  0
VERTEX
  5
119D5
  8
LAYER_1
 10
225.6763128859837
 20
20.4991410991405
 30
0.0
  0
VERTEX
  5
119D6
  8
LAYER_1
 10
225.6763128859837
 20
34.4991410991405
 30
0.0
  0
SEQEND
  5
11A2C
  8
LAYER_1
  0
POLYLINE
  5
1170C
  8
LAYER_1
 66
     1
 10
0.0
 20
0.0
 30
0.0
  0
VERTEX
  5
119D7
  8
LAYER_1
 10
247.0513128859837
 20
34.4991410991405
 30
0.0
  0
VERTEX
  5
119D8
  8
LAYER_1
 10
261.0513128859836
 20
34.4991410991405
 30
0.0
  0
VERTEX
  5
119D9
  8
LAYER_1
 10
261.0513128859836
 20
20.4991410991405
 30
0.0
  0
VERTEX
  5
119DA
  8
LAYER_1
 10
247.0513128859837
 20
20.4991410991405
 30
0.0
  0
VERTEX
  5
119DB
  8
LAYER_1
 10
247.0513128859837
 20
34.4991410991405
 30
0.0
  0
SEQEND
  5
11A2D
  8
LAYER_1
  0
POLYLINE
  5
1170D
  8
LAYER_1
 66
     1
 10
0.0
 20
0.0
 30
0.0
  0
VERTEX
  5
119DC
  8
LAYER_1
 10
266.0513128859836
 20
34.4991410991405
 30
0.0
  0
VERTEX
  5
119DD
  8
LAYER_1
 10
280.0513128859836
 20
34.4991410991405
 30
0.0
  0
VERTEX
  5
119DE
  8
LAYER_1
 10
280.0513128859836
 20
20.4991410991405
 30
0.0
  0
VERTEX
  5
119DF
  8
LAYER_1
 10
266.0513128859836
 20
20.4991410991405
 30
0.0
  0
VERTEX
  5
119E0
  8
LAYER_1
 10
266.0513128859836
 20
34.4991410991405
 30
0.0
  0
SEQEND
  5
11A2E
  8
LAYER_1
  0
POLYLINE
  5
1170E
  8
LAYER_1
 66
     1
 10
0.0
 20
0.0
 30
0.0
  0
VERTEX
  5
119E1
  8
LAYER_1
 10
285.0513128859836
 20
34.4991410991405
 30
0.0
  0
VERTEX
  5
119E2
  8
LAYER_1
 10
299.0513128859836
 20
34.4991410991405
 30
0.0
  0
VERTEX
  5
119E3
  8
LAYER_1
 10
299.0513128859836
 20
20.4991410991405
 30
0.0
  0
VERTEX
  5
119E4
  8
LAYER_1
 10
285.0513128859836
 20
20.4991410991405
 30
0.0
  0
VERTEX
  5
119E5
  8
LAYER_1
 10
285.0513128859836
 20
34.4991410991405
 30
0.0
  0
SEQEND
  5
11A2F
  8
LAYER_1
  0
ARC
  5
117DC
  8
LAYER_1
 10
20.05067061204545
 20
109.4969349290343
 30
0.0
 40
4.000000000000001
 50
90.0
 51
180.0
  0
LINE
  5
117DF
  8
LAYER_1
  6
BYBLOCK
 10
20.05067061204545
 20
113.4969349290343
 30
0.0
 11
279.0491367158775
 21
113.4997833730787
 31
0.0
  0
LINE
  5
117E0
  8
LAYER_1
  6
BYBLOCK
 10
16.05067061204545
 20
109.4969349290343
 30
0.0
 11
16.05067061204545
 21
90.49696492903422
 31
0.0
  0
ARC
  5
117EB
  8
LAYER_1
 10
298.0519551599218
 20
21.50134726924682
 30
0.0
 40
4.000000000000001
 50
270.0
 51
0.0
  0
LINE
  5
117EE
  8
LAYER_1
  6
BYBLOCK
 10
298.0519551599218
 20
17.50134726924682
 30
0.0
 11
39.05348905609003
 21
17.4984988252022
 31
0.0
  0
LINE
  5
117EF
  8
LAYER_1
  6
BYBLOCK
 10
302.0519551599218
 20
21.50134726924682
 30
0.0
 11
302.0519551599218
 21
40.5013172692469
 31
0.0
  0
ARC
  5
117F6
  8
LAYER_1
 10
298.0491067158775
 20
109.4997833730787
 30
0.0
 40
4.000000000000001
 50
0.0
 51
90.0
  0
LINE
  5
117F9
  8
LAYER_1
  6
BYBLOCK
 10
302.0491067158775
 20
109.4997833730787
 30
0.0
 11
302.0519551599218
 21
40.5013172692469
 31
0.0
  0
LINE
  5
117FA
  8
LAYER_1
  6
BYBLOCK
 10
298.0491067158775
 20
113.4997833730787
 30
0.0
 11
279.0491367158775
 21
113.4997833730787
 31
0.0
  0
ARC
  5
11801
  8
LAYER_1
 10
20.05351905608995
 20
21.4984988252022
 30
0.0
 40
4.000000000000001
 50
180.0
 51
270.0
  0
LINE
  5
11804
  8
LAYER_1
  6
BYBLOCK
 10
16.05351905608995
 20
21.4984988252022
 30
0.0
 11
16.05067061204545
 21
90.49696492903422
 31
0.0
  0
LINE
  5
11805
  8
LAYER_1
  6
BYBLOCK
 10
20.05351905608995
 20
17.4984988252022
 30
0.0
 11
39.05348905609003
 21
17.4984988252022
 31
0.0
  0
VIEWPORT
  5
1170F
 67
     1
  8
0
 10
202.5
 20
128.5
 30
0.0
 40
486.0
 41
308.4
 68
     1
 69
     1
1001
ACAD
1000
MVIEW
1002
{
1070
    16
1010
0.0
1020
0.0
1030
0.0
1010
0.0
1020
0.0
1030
1.0
1040
0.0
1040
308.4
1040
202.5
1040
128.5
1040
50.0
1040
0.0
1040
0.0
1070
     0
1070
   100
1070
     0
1070
     3
1070
     0
1070
     0
1070
     0
1070
     0
1040
0.0
1040
0.0
1040
0.0
1040
0.5
1040
0.5
1040
0.0
1040
0.0
1070
     0
1002
{
1002
}
1002
}
  0
VIEWPORT
  5
11710
 67
     1
  8
0
 10
202.5
 20
128.5
 30
0.0
 40
324.0
 41
205.6
 68
     2
 69
     2
1001
ACAD
1000
MVIEW
1002
{
1070
    16
1010
0.0
1020
0.0
1030
0.0
1010
0.0
1020
0.0
1030
1.0
1040
0.0
1040
221.9061011406519
1040
159.0992106564271
1040
120.1443034295158
1040
50.0
1040
0.0
1040
0.0
1070
     0
1070
   100
1070
     0
1070
     3
1070
     0
1070
     0
1070
     0
1070
     0
1040
0.0
1040
0.0
1040
0.0
1040
0.5
1040
0.5
1040
0.0
1040
0.0
1070
     0
1002
{
1002
}
1002
}
  0
ENDSEC
  0
EOF
