  0
SECTION
  2
HEADER
  9
$ACADVER
  1
AC1009
  9
$DWGCODEPAGE
  3
ansi_1252
  9
$INSBASE
 10
0.0
 20
0.0
 30
0.0
  9
$EXTMIN
 10
93.88884950785402
 20
345.5153383271163
 30
0.0
  9
$EXTMAX
 10
391.888855507854
 20
453.5153343271163
 30
0.0
  9
$LIMMIN
 10
0.0
 20
0.0
  9
$LIMMAX
 10
12.0
 20
9.0
  9
$ORTHOMODE
 70
     1
  9
$REGENMODE
 70
     1
  9
$FILLMODE
 70
     1
  9
$QTEXTMODE
 70
     0
  9
$MIRRTEXT
 70
     1
  9
$DRAGMODE
 70
     2
  9
$LTSCALE
 40
1.0
  9
$OSMODE
 70
 16895
  9
$ATTMODE
 70
     1
  9
$TEXTSIZE
 40
72.58179137865795
  9
$TRACEWID
 40
0.05
  9
$TEXTSTYLE
  7
STANDARD
  9
$CLAYER
  8
LAYER_1
  9
$CELTYPE
  6
BYBLOCK
  9
$CECOLOR
 62
     0
  9
$DIMSCALE
 40
1.0
  9
$DIMASZ
 40
0.18
  9
$DIMEXO
 40
0.0625
  9
$DIMDLI
 40
0.38
  9
$DIMRND
 40
0.0
  9
$DIMDLE
 40
0.0
  9
$DIMEXE
 40
0.18
  9
$DIMTP
 40
0.0
  9
$DIMTM
 40
0.0
  9
$DIMTXT
 40
0.18
  9
$DIMCEN
 40
0.09
  9
$DIMTSZ
 40
0.0
  9
$DIMTOL
 70
     0
  9
$DIMLIM
 70
     0
  9
$DIMTIH
 70
     1
  9
$DIMTOH
 70
     1
  9
$DIMSE1
 70
     0
  9
$DIMSE2
 70
     0
  9
$DIMTAD
 70
     0
  9
$DIMZIN
 70
     0
  9
$DIMBLK
  1

  9
$DIMASO
 70
     1
  9
$DIMSHO
 70
     1
  9
$DIMPOST
  1

  9
$DIMAPOST
  1

  9
$DIMALT
 70
     0
  9
$DIMALTD
 70
     2
  9
$DIMALTF
 40
25.4
  9
$DIMLFAC
 40
1.0
  9
$DIMTOFL
 70
     0
  9
$DIMTVP
 40
0.0
  9
$DIMTIX
 70
     0
  9
$DIMSOXD
 70
     0
  9
$DIMSAH
 70
     0
  9
$DIMBLK1
  1

  9
$DIMBLK2
  1

  9
$DIMSTYLE
  2
ISO-25
  9
$DIMCLRD
 70
     0
  9
$DIMCLRE
 70
     0
  9
$DIMCLRT
 70
     0
  9
$DIMTFAC
 40
1.0
  9
$DIMGAP
 40
0.09
  9
$LUNITS
 70
     2
  9
$LUPREC
 70
     4
  9
$SKETCHINC
 40
0.1
  9
$FILLETRAD
 40
1.0
  9
$AUNITS
 70
     0
  9
$AUPREC
 70
     0
  9
$MENU
  1
.
  9
$ELEVATION
 40
0.0
  9
$PELEVATION
 40
0.0
  9
$THICKNESS
 40
0.0
  9
$LIMCHECK
 70
     0
  9
$CHAMFERA
 40
0.5
  9
$CHAMFERB
 40
0.5
  9
$SKPOLY
 70
     0
  9
$TDCREATE
 40
2447892.791666667
  9
$TDUPDATE
 40
2457060.610967026
  9
$TDINDWG
 40
3.0677223958
  9
$TDUSRTIMER
 40
2457060.77098316
  9
$USRTIMER
 70
     1
  9
$ANGBASE
 50
0.0
  9
$ANGDIR
 70
     0
  9
$PDMODE
 70
     0
  9
$PDSIZE
 40
-5.0
  9
$PLINEWID
 40
0.0
  9
$COORDS
 70
     1
  9
$SPLFRAME
 70
     0
  9
$SPLINETYPE
 70
     6
  9
$SPLINESEGS
 70
     8
  9
$ATTDIA
 70
     0
  9
$ATTREQ
 70
     1
  9
$HANDLING
 70
     1
  9
$HANDSEED
  5
495
  9
$SURFTAB1
 70
     6
  9
$SURFTAB2
 70
     6
  9
$SURFTYPE
 70
     6
  9
$SURFU
 70
     6
  9
$SURFV
 70
     6
  9
$UCSNAME
  2

  9
$UCSORG
 10
0.0
 20
0.0
 30
0.0
  9
$UCSXDIR
 10
1.0
 20
0.0
 30
0.0
  9
$UCSYDIR
 10
0.0
 20
1.0
 30
0.0
  9
$PUCSNAME
  2

  9
$PUCSORG
 10
0.0
 20
0.0
 30
0.0
  9
$PUCSXDIR
 10
1.0
 20
0.0
 30
0.0
  9
$PUCSYDIR
 10
0.0
 20
1.0
 30
0.0
  9
$USERI1
 70
     0
  9
$USERI2
 70
     0
  9
$USERI3
 70
     0
  9
$USERI4
 70
     0
  9
$USERI5
 70
     0
  9
$USERR1
 40
0.0
  9
$USERR2
 40
0.0
  9
$USERR3
 40
0.0
  9
$USERR4
 40
0.0
  9
$USERR5
 40
0.0
  9
$WORLDVIEW
 70
     1
  9
$SHADEDGE
 70
     3
  9
$SHADEDIF
 70
    70
  9
$TILEMODE
 70
     1
  9
$MAXACTVP
 70
    64
  9
$PLIMCHECK
 70
     0
  9
$PEXTMIN
 10
0.0
 20
0.0
 30
0.0
  9
$PEXTMAX
 10
0.0
 20
0.0
 30
0.0
  9
$PLIMMIN
 10
0.0
 20
0.0
  9
$PLIMMAX
 10
0.0
 20
0.0
  9
$UNITMODE
 70
     0
  9
$VISRETAIN
 70
     1
  9
$PLINEGEN
 70
     0
  9
$PSLTSCALE
 70
     1
  0
ENDSEC
  0
SECTION
  2
TABLES
  0
TABLE
  2
VPORT
 70
     1
  0
VPORT
  2
*ACTIVE
 70
     0
 10
0.0
 20
0.0
 11
1.0
 21
1.0
 12
357.4190239939974
 22
361.5580160454687
 13
0.0
 23
0.0
 14
10.0
 24
10.0
 15
10.0
 25
10.0
 16
0.0
 26
0.0
 36
1.0
 17
0.0
 27
0.0
 37
0.0
 40
155.6508046135635
 41
2.297450424929179
 42
50.0
 43
0.0
 44
0.0
 50
0.0
 51
0.0
 71
    16
 72
   100
 73
     1
 74
     3
 75
     0
 76
     0
 77
     0
 78
     0
  0
ENDTAB
  0
TABLE
  2
LTYPE
 70
     1
  0
LTYPE
  2
CONTINUOUS
 70
     0
  3
Solid line
 72
    65
 73
     0
 40
0.0
  0
ENDTAB
  0
TABLE
  2
LAYER
 70
     3
  0
LAYER
  2
0
 70
     0
 62
     7
  6
CONTINUOUS
  0
LAYER
  2
LAYER_1
 70
     0
 62
     7
  6
CONTINUOUS
  0
LAYER
  2
DEFPOINTS
 70
     0
 62
     7
  6
CONTINUOUS
  0
ENDTAB
  0
TABLE
  2
STYLE
 70
     1
  0
STYLE
  2
STANDARD
 70
     0
 40
0.0
 41
1.0
 50
0.0
 71
     0
 42
72.58179137865795
  3
txt
  4

  0
ENDTAB
  0
TABLE
  2
VIEW
 70
     0
  0
ENDTAB
  0
TABLE
  2
UCS
 70
     0
  0
ENDTAB
  0
TABLE
  2
APPID
 70
     1
  0
APPID
  2
ACAD
 70
     0
  0
ENDTAB
  0
TABLE
  2
DIMSTYLE
 70
     1
  0
DIMSTYLE
  2
ISO-25
 70
     0
  3

  4

  5

  6

  7

 40
1.0
 41
2.5
 42
0.625
 43
3.75
 44
1.25
 45
0.0
 46
0.0
 47
0.0
 48
0.0
140
2.5
141
2.5
142
0.0
143
0.03937007874016
144
1.0
145
0.0
146
1.0
147
0.625
 71
     0
 72
     0
 73
     0
 74
     0
 75
     0
 76
     0
 77
     1
 78
     8
170
     0
171
     3
172
     1
173
     0
174
     0
175
     0
176
     0
177
     0
178
     0
  0
ENDTAB
  0
ENDSEC
  0
SECTION
  2
BLOCKS
  0
BLOCK
  8
0
  2
$MODEL_SPACE
 70
     0
 10
0.0
 20
0.0
 30
0.0
  3
$MODEL_SPACE
  1

  0
ENDBLK
  5
1D
  8
0
  0
BLOCK
 67
     1
  8
0
  2
$PAPER_SPACE
 70
     0
 10
0.0
 20
0.0
 30
0.0
  3
$PAPER_SPACE
  1

  0
ENDBLK
  5
2DF
 67
     1
  8
0
  0
ENDSEC
  0
SECTION
  2
ENTITIES
  0
LINE
  5
53
  8
LAYER_1
 10
93.88884950785402
 20
349.5153383271163
 30
0.0
 11
93.88884950785402
 21
449.5153343271163
 31
0.0
  0
ARC
  5
54
  8
LAYER_1
 10
97.88884950785402
 20
449.5153343271163
 30
0.0
 40
4.000000000000001
 50
90.0
 51
180.0
  0
ARC
  5
55
  8
LAYER_1
 10
97.88884950785402
 20
349.5153383271163
 30
0.0
 40
4.000000000000001
 50
180.0
 51
270.0
  0
CIRCLE
  5
56
  8
LAYER_1
 10
98.12108322407104
 20
449.2831149954018
 30
0.0
 40
1.350000000000001
  0
CIRCLE
  5
57
  8
LAYER_1
 10
98.12108405488763
 20
349.7475728741501
 30
0.0
 40
1.350000000000001
  0
POLYLINE
  5
58
  8
LAYER_1
 66
     1
 10
0.0
 20
0.0
 30
0.0
  0
VERTEX
  5
2E1
  8
LAYER_1
 10
102.8888525078541
 20
444.5153643271165
 30
0.0
  0
VERTEX
  5
2E2
  8
LAYER_1
 10
116.8888525078541
 20
444.5153643271165
 30
0.0
  0
VERTEX
  5
2E3
  8
LAYER_1
 10
116.8888525078541
 20
430.5153643271165
 30
0.0
  0
VERTEX
  5
2E4
  8
LAYER_1
 10
102.8888525078541
 20
430.5153643271165
 30
0.0
  0
VERTEX
  5
2E5
  8
LAYER_1
 10
102.8888525078541
 20
444.5153643271165
 30
0.0
  0
SEQEND
  5
44B
  8
LAYER_1
  0
POLYLINE
  5
59
  8
LAYER_1
 66
     1
 10
0.0
 20
0.0
 30
0.0
  0
VERTEX
  5
2E6
  8
LAYER_1
 10
121.8888525078541
 20
444.5153643271165
 30
0.0
  0
VERTEX
  5
2E7
  8
LAYER_1
 10
135.8888525078541
 20
444.5153643271165
 30
0.0
  0
VERTEX
  5
2E8
  8
LAYER_1
 10
135.8888525078541
 20
430.5153643271165
 30
0.0
  0
VERTEX
  5
2E9
  8
LAYER_1
 10
121.8888525078541
 20
430.5153643271165
 30
0.0
  0
VERTEX
  5
2EA
  8
LAYER_1
 10
121.8888525078541
 20
444.5153643271165
 30
0.0
  0
SEQEND
  5
44C
  8
LAYER_1
  0
POLYLINE
  5
5A
  8
LAYER_1
 66
     1
 10
0.0
 20
0.0
 30
0.0
  0
VERTEX
  5
2EB
  8
LAYER_1
 10
140.8888525078541
 20
444.5153643271165
 30
0.0
  0
VERTEX
  5
2EC
  8
LAYER_1
 10
154.8888525078541
 20
444.5153643271165
 30
0.0
  0
VERTEX
  5
2ED
  8
LAYER_1
 10
154.8888525078541
 20
430.5153643271165
 30
0.0
  0
VERTEX
  5
2EE
  8
LAYER_1
 10
140.8888525078541
 20
430.5153643271165
 30
0.0
  0
VERTEX
  5
2EF
  8
LAYER_1
 10
140.8888525078541
 20
444.5153643271165
 30
0.0
  0
SEQEND
  5
44D
  8
LAYER_1
  0
POLYLINE
  5
5B
  8
LAYER_1
 66
     1
 10
0.0
 20
0.0
 30
0.0
  0
VERTEX
  5
2F0
  8
LAYER_1
 10
159.8888525078541
 20
444.5153643271165
 30
0.0
  0
VERTEX
  5
2F1
  8
LAYER_1
 10
173.8888525078541
 20
444.5153643271165
 30
0.0
  0
VERTEX
  5
2F2
  8
LAYER_1
 10
173.8888525078541
 20
430.5153643271165
 30
0.0
  0
VERTEX
  5
2F3
  8
LAYER_1
 10
159.8888525078541
 20
430.5153643271165
 30
0.0
  0
VERTEX
  5
2F4
  8
LAYER_1
 10
159.8888525078541
 20
444.5153643271165
 30
0.0
  0
SEQEND
  5
44E
  8
LAYER_1
  0
POLYLINE
  5
5C
  8
LAYER_1
 66
     1
 10
0.0
 20
0.0
 30
0.0
  0
VERTEX
  5
2F5
  8
LAYER_1
 10
178.8888525078541
 20
444.5153643271165
 30
0.0
  0
VERTEX
  5
2F6
  8
LAYER_1
 10
192.8888525078541
 20
444.5153643271165
 30
0.0
  0
VERTEX
  5
2F7
  8
LAYER_1
 10
192.8888525078541
 20
430.5153643271165
 30
0.0
  0
VERTEX
  5
2F8
  8
LAYER_1
 10
178.8888525078541
 20
430.5153643271165
 30
0.0
  0
VERTEX
  5
2F9
  8
LAYER_1
 10
178.8888525078541
 20
444.5153643271165
 30
0.0
  0
SEQEND
  5
44F
  8
LAYER_1
  0
POLYLINE
  5
5D
  8
LAYER_1
 66
     1
 10
0.0
 20
0.0
 30
0.0
  0
VERTEX
  5
2FA
  8
LAYER_1
 10
197.8888525078541
 20
444.5153643271165
 30
0.0
  0
VERTEX
  5
2FB
  8
LAYER_1
 10
211.8888525078541
 20
444.5153643271165
 30
0.0
  0
VERTEX
  5
2FC
  8
LAYER_1
 10
211.8888525078541
 20
430.5153643271165
 30
0.0
  0
VERTEX
  5
2FD
  8
LAYER_1
 10
197.8888525078541
 20
430.5153643271165
 30
0.0
  0
VERTEX
  5
2FE
  8
LAYER_1
 10
197.8888525078541
 20
444.5153643271165
 30
0.0
  0
SEQEND
  5
450
  8
LAYER_1
  0
POLYLINE
  5
5E
  8
LAYER_1
 66
     1
 10
0.0
 20
0.0
 30
0.0
  0
VERTEX
  5
2FF
  8
LAYER_1
 10
216.8888525078541
 20
444.5153643271165
 30
0.0
  0
VERTEX
  5
300
  8
LAYER_1
 10
230.8888525078541
 20
444.5153643271165
 30
0.0
  0
VERTEX
  5
301
  8
LAYER_1
 10
230.8888525078541
 20
430.5153643271165
 30
0.0
  0
VERTEX
  5
302
  8
LAYER_1
 10
216.8888525078541
 20
430.5153643271165
 30
0.0
  0
VERTEX
  5
303
  8
LAYER_1
 10
216.8888525078541
 20
444.5153643271165
 30
0.0
  0
SEQEND
  5
451
  8
LAYER_1
  0
POLYLINE
  5
5F
  8
LAYER_1
 66
     1
 10
0.0
 20
0.0
 30
0.0
  0
VERTEX
  5
304
  8
LAYER_1
 10
235.8888525078541
 20
444.5153643271165
 30
0.0
  0
VERTEX
  5
305
  8
LAYER_1
 10
249.8888525078541
 20
444.5153643271165
 30
0.0
  0
VERTEX
  5
306
  8
LAYER_1
 10
249.8888525078541
 20
430.5153643271165
 30
0.0
  0
VERTEX
  5
307
  8
LAYER_1
 10
235.8888525078541
 20
430.5153643271165
 30
0.0
  0
VERTEX
  5
308
  8
LAYER_1
 10
235.8888525078541
 20
444.5153643271165
 30
0.0
  0
SEQEND
  5
452
  8
LAYER_1
  0
POLYLINE
  5
60
  8
LAYER_1
 66
     1
 10
0.0
 20
0.0
 30
0.0
  0
VERTEX
  5
309
  8
LAYER_1
 10
254.8888525078541
 20
444.5153643271165
 30
0.0
  0
VERTEX
  5
30A
  8
LAYER_1
 10
268.8888525078542
 20
444.5153643271165
 30
0.0
  0
VERTEX
  5
30B
  8
LAYER_1
 10
268.8888525078542
 20
430.5153643271165
 30
0.0
  0
VERTEX
  5
30C
  8
LAYER_1
 10
254.8888525078541
 20
430.5153643271165
 30
0.0
  0
VERTEX
  5
30D
  8
LAYER_1
 10
254.8888525078541
 20
444.5153643271165
 30
0.0
  0
SEQEND
  5
453
  8
LAYER_1
  0
POLYLINE
  5
61
  8
LAYER_1
 66
     1
 10
0.0
 20
0.0
 30
0.0
  0
VERTEX
  5
30E
  8
LAYER_1
 10
273.8888525078542
 20
444.5153643271165
 30
0.0
  0
VERTEX
  5
30F
  8
LAYER_1
 10
287.8888525078542
 20
444.5153643271165
 30
0.0
  0
VERTEX
  5
310
  8
LAYER_1
 10
287.8888525078542
 20
430.5153643271165
 30
0.0
  0
VERTEX
  5
311
  8
LAYER_1
 10
273.8888525078542
 20
430.5153643271165
 30
0.0
  0
VERTEX
  5
312
  8
LAYER_1
 10
273.8888525078542
 20
444.5153643271165
 30
0.0
  0
SEQEND
  5
454
  8
LAYER_1
  0
POLYLINE
  5
62
  8
LAYER_1
 66
     1
 10
0.0
 20
0.0
 30
0.0
  0
VERTEX
  5
313
  8
LAYER_1
 10
292.8888525078542
 20
444.5153643271165
 30
0.0
  0
VERTEX
  5
314
  8
LAYER_1
 10
306.8888525078542
 20
444.5153643271165
 30
0.0
  0
VERTEX
  5
315
  8
LAYER_1
 10
306.8888525078542
 20
430.5153643271165
 30
0.0
  0
VERTEX
  5
316
  8
LAYER_1
 10
292.8888525078542
 20
430.5153643271165
 30
0.0
  0
VERTEX
  5
317
  8
LAYER_1
 10
292.8888525078542
 20
444.5153643271165
 30
0.0
  0
SEQEND
  5
455
  8
LAYER_1
  0
POLYLINE
  5
63
  8
LAYER_1
 66
     1
 10
0.0
 20
0.0
 30
0.0
  0
VERTEX
  5
318
  8
LAYER_1
 10
311.8888525078542
 20
444.5153643271165
 30
0.0
  0
VERTEX
  5
319
  8
LAYER_1
 10
325.8888525078541
 20
444.5153643271165
 30
0.0
  0
VERTEX
  5
31A
  8
LAYER_1
 10
325.8888525078541
 20
430.5153643271165
 30
0.0
  0
VERTEX
  5
31B
  8
LAYER_1
 10
311.8888525078542
 20
430.5153643271165
 30
0.0
  0
VERTEX
  5
31C
  8
LAYER_1
 10
311.8888525078542
 20
444.5153643271165
 30
0.0
  0
SEQEND
  5
456
  8
LAYER_1
  0
POLYLINE
  5
64
  8
LAYER_1
 66
     1
 10
0.0
 20
0.0
 30
0.0
  0
VERTEX
  5
31D
  8
LAYER_1
 10
330.8888525078541
 20
444.5153643271165
 30
0.0
  0
VERTEX
  5
31E
  8
LAYER_1
 10
344.8888525078541
 20
444.5153643271165
 30
0.0
  0
VERTEX
  5
31F
  8
LAYER_1
 10
344.8888525078541
 20
430.5153643271165
 30
0.0
  0
VERTEX
  5
320
  8
LAYER_1
 10
330.8888525078541
 20
430.5153643271165
 30
0.0
  0
VERTEX
  5
321
  8
LAYER_1
 10
330.8888525078541
 20
444.5153643271165
 30
0.0
  0
SEQEND
  5
457
  8
LAYER_1
  0
POLYLINE
  5
65
  8
LAYER_1
 66
     1
 10
0.0
 20
0.0
 30
0.0
  0
VERTEX
  5
322
  8
LAYER_1
 10
349.8888525078541
 20
444.5153643271165
 30
0.0
  0
VERTEX
  5
323
  8
LAYER_1
 10
363.8888525078541
 20
444.5153643271165
 30
0.0
  0
VERTEX
  5
324
  8
LAYER_1
 10
363.8888525078541
 20
430.5153643271165
 30
0.0
  0
VERTEX
  5
325
  8
LAYER_1
 10
349.8888525078541
 20
430.5153643271165
 30
0.0
  0
VERTEX
  5
326
  8
LAYER_1
 10
349.8888525078541
 20
444.5153643271165
 30
0.0
  0
SEQEND
  5
458
  8
LAYER_1
  0
POLYLINE
  5
66
  8
LAYER_1
 66
     1
 10
0.0
 20
0.0
 30
0.0
  0
VERTEX
  5
327
  8
LAYER_1
 10
368.8888525078541
 20
444.5153643271165
 30
0.0
  0
VERTEX
  5
328
  8
LAYER_1
 10
382.8888525078541
 20
444.5153643271165
 30
0.0
  0
VERTEX
  5
329
  8
LAYER_1
 10
382.8888525078541
 20
430.5153643271165
 30
0.0
  0
VERTEX
  5
32A
  8
LAYER_1
 10
368.8888525078541
 20
430.5153643271165
 30
0.0
  0
VERTEX
  5
32B
  8
LAYER_1
 10
368.8888525078541
 20
444.5153643271165
 30
0.0
  0
SEQEND
  5
459
  8
LAYER_1
  0
LINE
  5
67
  8
LAYER_1
 10
391.888855507854
 20
449.5153343271163
 30
0.0
 11
391.888855507854
 21
349.5153383271163
 31
0.0
  0
ARC
  5
68
  8
LAYER_1
 10
387.888855507854
 20
349.5153383271163
 30
0.0
 40
4.000000000000001
 50
270.0
 51
0.0
  0
ARC
  5
69
  8
LAYER_1
 10
387.888855507854
 20
449.5153343271163
 30
0.0
 40
4.000000000000001
 50
0.0
 51
90.0
  0
CIRCLE
  5
6A
  8
LAYER_1
 10
387.6566555078541
 20
449.2831167362212
 30
0.0
 40
1.350000000000023
  0
CIRCLE
  5
6B
  8
LAYER_1
 10
387.6566563386706
 20
349.7475746149696
 30
0.0
 40
1.350000000000023
  0
POLYLINE
  5
6C
  8
LAYER_1
 66
     1
 10
0.0
 20
0.0
 30
0.0
  0
VERTEX
  5
32C
  8
LAYER_1
 10
107.6388525078541
 20
425.5153643271165
 30
0.0
  0
VERTEX
  5
32D
  8
LAYER_1
 10
121.6388525078541
 20
425.5153643271165
 30
0.0
  0
VERTEX
  5
32E
  8
LAYER_1
 10
121.6388525078541
 20
411.5153643271165
 30
0.0
  0
VERTEX
  5
32F
  8
LAYER_1
 10
107.6388525078541
 20
411.5153643271165
 30
0.0
  0
VERTEX
  5
330
  8
LAYER_1
 10
107.6388525078541
 20
425.5153643271165
 30
0.0
  0
SEQEND
  5
45A
  8
LAYER_1
  0
POLYLINE
  5
6D
  8
LAYER_1
 66
     1
 10
0.0
 20
0.0
 30
0.0
  0
VERTEX
  5
331
  8
LAYER_1
 10
364.1388525078541
 20
425.5153643271165
 30
0.0
  0
VERTEX
  5
332
  8
LAYER_1
 10
378.1388525078541
 20
425.5153643271165
 30
0.0
  0
VERTEX
  5
333
  8
LAYER_1
 10
378.1388525078541
 20
411.5153643271165
 30
0.0
  0
VERTEX
  5
334
  8
LAYER_1
 10
364.1388525078541
 20
411.5153643271165
 30
0.0
  0
VERTEX
  5
335
  8
LAYER_1
 10
364.1388525078541
 20
425.5153643271165
 30
0.0
  0
SEQEND
  5
45B
  8
LAYER_1
  0
POLYLINE
  5
6E
  8
LAYER_1
 66
     1
 10
0.0
 20
0.0
 30
0.0
  0
VERTEX
  5
336
  8
LAYER_1
 10
131.3888525078541
 20
425.5153643271165
 30
0.0
  0
VERTEX
  5
337
  8
LAYER_1
 10
145.3888525078541
 20
425.5153643271165
 30
0.0
  0
VERTEX
  5
338
  8
LAYER_1
 10
145.3888525078541
 20
411.5153643271165
 30
0.0
  0
VERTEX
  5
339
  8
LAYER_1
 10
131.3888525078541
 20
411.5153643271165
 30
0.0
  0
VERTEX
  5
33A
  8
LAYER_1
 10
131.3888525078541
 20
425.5153643271165
 30
0.0
  0
SEQEND
  5
45C
  8
LAYER_1
  0
POLYLINE
  5
6F
  8
LAYER_1
 66
     1
 10
0.0
 20
0.0
 30
0.0
  0
VERTEX
  5
33B
  8
LAYER_1
 10
150.3888525078541
 20
425.5153643271165
 30
0.0
  0
VERTEX
  5
33C
  8
LAYER_1
 10
164.3888525078541
 20
425.5153643271165
 30
0.0
  0
VERTEX
  5
33D
  8
LAYER_1
 10
164.3888525078541
 20
411.5153643271165
 30
0.0
  0
VERTEX
  5
33E
  8
LAYER_1
 10
150.3888525078541
 20
411.5153643271165
 30
0.0
  0
VERTEX
  5
33F
  8
LAYER_1
 10
150.3888525078541
 20
425.5153643271165
 30
0.0
  0
SEQEND
  5
45D
  8
LAYER_1
  0
POLYLINE
  5
70
  8
LAYER_1
 66
     1
 10
0.0
 20
0.0
 30
0.0
  0
VERTEX
  5
340
  8
LAYER_1
 10
169.3888525078541
 20
425.5153643271165
 30
0.0
  0
VERTEX
  5
341
  8
LAYER_1
 10
183.3888525078541
 20
425.5153643271165
 30
0.0
  0
VERTEX
  5
342
  8
LAYER_1
 10
183.3888525078541
 20
411.5153643271165
 30
0.0
  0
VERTEX
  5
343
  8
LAYER_1
 10
169.3888525078541
 20
411.5153643271165
 30
0.0
  0
VERTEX
  5
344
  8
LAYER_1
 10
169.3888525078541
 20
425.5153643271165
 30
0.0
  0
SEQEND
  5
45E
  8
LAYER_1
  0
POLYLINE
  5
71
  8
LAYER_1
 66
     1
 10
0.0
 20
0.0
 30
0.0
  0
VERTEX
  5
345
  8
LAYER_1
 10
188.3888525078541
 20
425.5153643271165
 30
0.0
  0
VERTEX
  5
346
  8
LAYER_1
 10
202.3888525078541
 20
425.5153643271165
 30
0.0
  0
VERTEX
  5
347
  8
LAYER_1
 10
202.3888525078541
 20
411.5153643271165
 30
0.0
  0
VERTEX
  5
348
  8
LAYER_1
 10
188.3888525078541
 20
411.5153643271165
 30
0.0
  0
VERTEX
  5
349
  8
LAYER_1
 10
188.3888525078541
 20
425.5153643271165
 30
0.0
  0
SEQEND
  5
45F
  8
LAYER_1
  0
POLYLINE
  5
72
  8
LAYER_1
 66
     1
 10
0.0
 20
0.0
 30
0.0
  0
VERTEX
  5
34A
  8
LAYER_1
 10
207.3888525078541
 20
425.5153643271165
 30
0.0
  0
VERTEX
  5
34B
  8
LAYER_1
 10
221.3888525078541
 20
425.5153643271165
 30
0.0
  0
VERTEX
  5
34C
  8
LAYER_1
 10
221.3888525078541
 20
411.5153643271165
 30
0.0
  0
VERTEX
  5
34D
  8
LAYER_1
 10
207.3888525078541
 20
411.5153643271165
 30
0.0
  0
VERTEX
  5
34E
  8
LAYER_1
 10
207.3888525078541
 20
425.5153643271165
 30
0.0
  0
SEQEND
  5
460
  8
LAYER_1
  0
POLYLINE
  5
73
  8
LAYER_1
 66
     1
 10
0.0
 20
0.0
 30
0.0
  0
VERTEX
  5
34F
  8
LAYER_1
 10
226.3888525078541
 20
425.5153643271165
 30
0.0
  0
VERTEX
  5
350
  8
LAYER_1
 10
240.3888525078541
 20
425.5153643271165
 30
0.0
  0
VERTEX
  5
351
  8
LAYER_1
 10
240.3888525078541
 20
411.5153643271165
 30
0.0
  0
VERTEX
  5
352
  8
LAYER_1
 10
226.3888525078541
 20
411.5153643271165
 30
0.0
  0
VERTEX
  5
353
  8
LAYER_1
 10
226.3888525078541
 20
425.5153643271165
 30
0.0
  0
SEQEND
  5
461
  8
LAYER_1
  0
POLYLINE
  5
74
  8
LAYER_1
 66
     1
 10
0.0
 20
0.0
 30
0.0
  0
VERTEX
  5
354
  8
LAYER_1
 10
245.3888525078541
 20
425.5153643271165
 30
0.0
  0
VERTEX
  5
355
  8
LAYER_1
 10
259.3888525078542
 20
425.5153643271165
 30
0.0
  0
VERTEX
  5
356
  8
LAYER_1
 10
259.3888525078542
 20
411.5153643271165
 30
0.0
  0
VERTEX
  5
357
  8
LAYER_1
 10
245.3888525078541
 20
411.5153643271165
 30
0.0
  0
VERTEX
  5
358
  8
LAYER_1
 10
245.3888525078541
 20
425.5153643271165
 30
0.0
  0
SEQEND
  5
462
  8
LAYER_1
  0
POLYLINE
  5
75
  8
LAYER_1
 66
     1
 10
0.0
 20
0.0
 30
0.0
  0
VERTEX
  5
359
  8
LAYER_1
 10
264.3888525078542
 20
425.5153643271165
 30
0.0
  0
VERTEX
  5
35A
  8
LAYER_1
 10
278.3888525078542
 20
425.5153643271165
 30
0.0
  0
VERTEX
  5
35B
  8
LAYER_1
 10
278.3888525078542
 20
411.5153643271165
 30
0.0
  0
VERTEX
  5
35C
  8
LAYER_1
 10
264.3888525078542
 20
411.5153643271165
 30
0.0
  0
VERTEX
  5
35D
  8
LAYER_1
 10
264.3888525078542
 20
425.5153643271165
 30
0.0
  0
SEQEND
  5
463
  8
LAYER_1
  0
POLYLINE
  5
76
  8
LAYER_1
 66
     1
 10
0.0
 20
0.0
 30
0.0
  0
VERTEX
  5
35E
  8
LAYER_1
 10
283.3888525078542
 20
425.5153643271165
 30
0.0
  0
VERTEX
  5
35F
  8
LAYER_1
 10
297.3888525078542
 20
425.5153643271165
 30
0.0
  0
VERTEX
  5
360
  8
LAYER_1
 10
297.3888525078542
 20
411.5153643271165
 30
0.0
  0
VERTEX
  5
361
  8
LAYER_1
 10
283.3888525078542
 20
411.5153643271165
 30
0.0
  0
VERTEX
  5
362
  8
LAYER_1
 10
283.3888525078542
 20
425.5153643271165
 30
0.0
  0
SEQEND
  5
464
  8
LAYER_1
  0
POLYLINE
  5
77
  8
LAYER_1
 66
     1
 10
0.0
 20
0.0
 30
0.0
  0
VERTEX
  5
363
  8
LAYER_1
 10
302.3888525078542
 20
425.5153643271165
 30
0.0
  0
VERTEX
  5
364
  8
LAYER_1
 10
316.3888525078541
 20
425.5153643271165
 30
0.0
  0
VERTEX
  5
365
  8
LAYER_1
 10
316.3888525078541
 20
411.5153643271165
 30
0.0
  0
VERTEX
  5
366
  8
LAYER_1
 10
302.3888525078542
 20
411.5153643271165
 30
0.0
  0
VERTEX
  5
367
  8
LAYER_1
 10
302.3888525078542
 20
425.5153643271165
 30
0.0
  0
SEQEND
  5
465
  8
LAYER_1
  0
POLYLINE
  5
78
  8
LAYER_1
 66
     1
 10
0.0
 20
0.0
 30
0.0
  0
VERTEX
  5
368
  8
LAYER_1
 10
321.3888525078541
 20
425.5153643271165
 30
0.0
  0
VERTEX
  5
369
  8
LAYER_1
 10
335.3888525078541
 20
425.5153643271165
 30
0.0
  0
VERTEX
  5
36A
  8
LAYER_1
 10
335.3888525078541
 20
411.5153643271165
 30
0.0
  0
VERTEX
  5
36B
  8
LAYER_1
 10
321.3888525078541
 20
411.5153643271165
 30
0.0
  0
VERTEX
  5
36C
  8
LAYER_1
 10
321.3888525078541
 20
425.5153643271165
 30
0.0
  0
SEQEND
  5
466
  8
LAYER_1
  0
POLYLINE
  5
79
  8
LAYER_1
 66
     1
 10
0.0
 20
0.0
 30
0.0
  0
VERTEX
  5
36D
  8
LAYER_1
 10
340.3888525078541
 20
425.5153643271165
 30
0.0
  0
VERTEX
  5
36E
  8
LAYER_1
 10
354.3888525078541
 20
425.5153643271165
 30
0.0
  0
VERTEX
  5
36F
  8
LAYER_1
 10
354.3888525078541
 20
411.5153643271165
 30
0.0
  0
VERTEX
  5
370
  8
LAYER_1
 10
340.3888525078541
 20
411.5153643271165
 30
0.0
  0
VERTEX
  5
371
  8
LAYER_1
 10
340.3888525078541
 20
425.5153643271165
 30
0.0
  0
SEQEND
  5
467
  8
LAYER_1
  0
POLYLINE
  5
7A
  8
LAYER_1
 66
     1
 10
0.0
 20
0.0
 30
0.0
  0
VERTEX
  5
372
  8
LAYER_1
 10
140.8888525078541
 20
387.5153643271165
 30
0.0
  0
VERTEX
  5
373
  8
LAYER_1
 10
154.8888525078541
 20
387.5153643271165
 30
0.0
  0
VERTEX
  5
374
  8
LAYER_1
 10
154.8888525078541
 20
373.5153643271165
 30
0.0
  0
VERTEX
  5
375
  8
LAYER_1
 10
140.8888525078541
 20
373.5153643271165
 30
0.0
  0
VERTEX
  5
376
  8
LAYER_1
 10
140.8888525078541
 20
387.5153643271165
 30
0.0
  0
SEQEND
  5
468
  8
LAYER_1
  0
POLYLINE
  5
7B
  8
LAYER_1
 66
     1
 10
0.0
 20
0.0
 30
0.0
  0
VERTEX
  5
377
  8
LAYER_1
 10
159.8888525078541
 20
387.5153643271165
 30
0.0
  0
VERTEX
  5
378
  8
LAYER_1
 10
173.8888525078541
 20
387.5153643271165
 30
0.0
  0
VERTEX
  5
379
  8
LAYER_1
 10
173.8888525078541
 20
373.5153643271165
 30
0.0
  0
VERTEX
  5
37A
  8
LAYER_1
 10
159.8888525078541
 20
373.5153643271165
 30
0.0
  0
VERTEX
  5
37B
  8
LAYER_1
 10
159.8888525078541
 20
387.5153643271165
 30
0.0
  0
SEQEND
  5
469
  8
LAYER_1
  0
POLYLINE
  5
7C
  8
LAYER_1
 66
     1
 10
0.0
 20
0.0
 30
0.0
  0
VERTEX
  5
37C
  8
LAYER_1
 10
178.8888525078541
 20
387.5153643271165
 30
0.0
  0
VERTEX
  5
37D
  8
LAYER_1
 10
192.8888525078541
 20
387.5153643271165
 30
0.0
  0
VERTEX
  5
37E
  8
LAYER_1
 10
192.8888525078541
 20
373.5153643271165
 30
0.0
  0
VERTEX
  5
37F
  8
LAYER_1
 10
178.8888525078541
 20
373.5153643271165
 30
0.0
  0
VERTEX
  5
380
  8
LAYER_1
 10
178.8888525078541
 20
387.5153643271165
 30
0.0
  0
SEQEND
  5
46A
  8
LAYER_1
  0
POLYLINE
  5
7D
  8
LAYER_1
 66
     1
 10
0.0
 20
0.0
 30
0.0
  0
VERTEX
  5
381
  8
LAYER_1
 10
197.8888525078541
 20
387.5153643271165
 30
0.0
  0
VERTEX
  5
382
  8
LAYER_1
 10
211.8888525078541
 20
387.5153643271165
 30
0.0
  0
VERTEX
  5
383
  8
LAYER_1
 10
211.8888525078541
 20
373.5153643271165
 30
0.0
  0
VERTEX
  5
384
  8
LAYER_1
 10
197.8888525078541
 20
373.5153643271165
 30
0.0
  0
VERTEX
  5
385
  8
LAYER_1
 10
197.8888525078541
 20
387.5153643271165
 30
0.0
  0
SEQEND
  5
46B
  8
LAYER_1
  0
POLYLINE
  5
7E
  8
LAYER_1
 66
     1
 10
0.0
 20
0.0
 30
0.0
  0
VERTEX
  5
386
  8
LAYER_1
 10
216.8888525078541
 20
387.5153643271165
 30
0.0
  0
VERTEX
  5
387
  8
LAYER_1
 10
230.8888525078541
 20
387.5153643271165
 30
0.0
  0
VERTEX
  5
388
  8
LAYER_1
 10
230.8888525078541
 20
373.5153643271165
 30
0.0
  0
VERTEX
  5
389
  8
LAYER_1
 10
216.8888525078541
 20
373.5153643271165
 30
0.0
  0
VERTEX
  5
38A
  8
LAYER_1
 10
216.8888525078541
 20
387.5153643271165
 30
0.0
  0
SEQEND
  5
46C
  8
LAYER_1
  0
POLYLINE
  5
7F
  8
LAYER_1
 66
     1
 10
0.0
 20
0.0
 30
0.0
  0
VERTEX
  5
38B
  8
LAYER_1
 10
235.8888525078541
 20
387.5153643271165
 30
0.0
  0
VERTEX
  5
38C
  8
LAYER_1
 10
249.8888525078541
 20
387.5153643271165
 30
0.0
  0
VERTEX
  5
38D
  8
LAYER_1
 10
249.8888525078541
 20
373.5153643271165
 30
0.0
  0
VERTEX
  5
38E
  8
LAYER_1
 10
235.8888525078541
 20
373.5153643271165
 30
0.0
  0
VERTEX
  5
38F
  8
LAYER_1
 10
235.8888525078541
 20
387.5153643271165
 30
0.0
  0
SEQEND
  5
46D
  8
LAYER_1
  0
POLYLINE
  5
80
  8
LAYER_1
 66
     1
 10
0.0
 20
0.0
 30
0.0
  0
VERTEX
  5
390
  8
LAYER_1
 10
254.8888525078541
 20
387.5153643271165
 30
0.0
  0
VERTEX
  5
391
  8
LAYER_1
 10
268.8888525078542
 20
387.5153643271165
 30
0.0
  0
VERTEX
  5
392
  8
LAYER_1
 10
268.8888525078542
 20
373.5153643271165
 30
0.0
  0
VERTEX
  5
393
  8
LAYER_1
 10
254.8888525078541
 20
373.5153643271165
 30
0.0
  0
VERTEX
  5
394
  8
LAYER_1
 10
254.8888525078541
 20
387.5153643271165
 30
0.0
  0
SEQEND
  5
46E
  8
LAYER_1
  0
POLYLINE
  5
81
  8
LAYER_1
 66
     1
 10
0.0
 20
0.0
 30
0.0
  0
VERTEX
  5
395
  8
LAYER_1
 10
273.8888525078542
 20
387.5153643271165
 30
0.0
  0
VERTEX
  5
396
  8
LAYER_1
 10
287.8888525078542
 20
387.5153643271165
 30
0.0
  0
VERTEX
  5
397
  8
LAYER_1
 10
287.8888525078542
 20
373.5153643271165
 30
0.0
  0
VERTEX
  5
398
  8
LAYER_1
 10
273.8888525078542
 20
373.5153643271165
 30
0.0
  0
VERTEX
  5
399
  8
LAYER_1
 10
273.8888525078542
 20
387.5153643271165
 30
0.0
  0
SEQEND
  5
46F
  8
LAYER_1
  0
POLYLINE
  5
82
  8
LAYER_1
 66
     1
 10
0.0
 20
0.0
 30
0.0
  0
VERTEX
  5
39A
  8
LAYER_1
 10
292.8888525078542
 20
387.5153643271165
 30
0.0
  0
VERTEX
  5
39B
  8
LAYER_1
 10
306.8888525078542
 20
387.5153643271165
 30
0.0
  0
VERTEX
  5
39C
  8
LAYER_1
 10
306.8888525078542
 20
373.5153643271165
 30
0.0
  0
VERTEX
  5
39D
  8
LAYER_1
 10
292.8888525078542
 20
373.5153643271165
 30
0.0
  0
VERTEX
  5
39E
  8
LAYER_1
 10
292.8888525078542
 20
387.5153643271165
 30
0.0
  0
SEQEND
  5
470
  8
LAYER_1
  0
POLYLINE
  5
83
  8
LAYER_1
 66
     1
 10
0.0
 20
0.0
 30
0.0
  0
VERTEX
  5
39F
  8
LAYER_1
 10
311.8888525078542
 20
387.5153643271165
 30
0.0
  0
VERTEX
  5
3A0
  8
LAYER_1
 10
325.8888525078541
 20
387.5153643271165
 30
0.0
  0
VERTEX
  5
3A1
  8
LAYER_1
 10
325.8888525078541
 20
373.5153643271165
 30
0.0
  0
VERTEX
  5
3A2
  8
LAYER_1
 10
311.8888525078542
 20
373.5153643271165
 30
0.0
  0
VERTEX
  5
3A3
  8
LAYER_1
 10
311.8888525078542
 20
387.5153643271165
 30
0.0
  0
SEQEND
  5
471
  8
LAYER_1
  0
POLYLINE
  5
84
  8
LAYER_1
 66
     1
 10
0.0
 20
0.0
 30
0.0
  0
VERTEX
  5
3A4
  8
LAYER_1
 10
330.8888525078541
 20
387.5153643271165
 30
0.0
  0
VERTEX
  5
3A5
  8
LAYER_1
 10
344.8888525078541
 20
387.5153643271165
 30
0.0
  0
VERTEX
  5
3A6
  8
LAYER_1
 10
344.8888525078541
 20
373.5153643271165
 30
0.0
  0
VERTEX
  5
3A7
  8
LAYER_1
 10
330.8888525078541
 20
373.5153643271165
 30
0.0
  0
VERTEX
  5
3A8
  8
LAYER_1
 10
330.8888525078541
 20
387.5153643271165
 30
0.0
  0
SEQEND
  5
472
  8
LAYER_1
  0
POLYLINE
  5
85
  8
LAYER_1
 66
     1
 10
0.0
 20
0.0
 30
0.0
  0
VERTEX
  5
3A9
  8
LAYER_1
 10
349.8888525078541
 20
387.5153643271165
 30
0.0
  0
VERTEX
  5
3AA
  8
LAYER_1
 10
363.8888525078541
 20
387.5153643271165
 30
0.0
  0
VERTEX
  5
3AB
  8
LAYER_1
 10
363.8888525078541
 20
373.5153643271165
 30
0.0
  0
VERTEX
  5
3AC
  8
LAYER_1
 10
349.8888525078541
 20
373.5153643271165
 30
0.0
  0
VERTEX
  5
3AD
  8
LAYER_1
 10
349.8888525078541
 20
387.5153643271165
 30
0.0
  0
SEQEND
  5
473
  8
LAYER_1
  0
POLYLINE
  5
86
  8
LAYER_1
 66
     1
 10
0.0
 20
0.0
 30
0.0
  0
VERTEX
  5
3AE
  8
LAYER_1
 10
368.8888525078541
 20
387.5153643271165
 30
0.0
  0
VERTEX
  5
3AF
  8
LAYER_1
 10
382.8888525078541
 20
387.5153643271165
 30
0.0
  0
VERTEX
  5
3B0
  8
LAYER_1
 10
382.8888525078541
 20
373.5153643271165
 30
0.0
  0
VERTEX
  5
3B1
  8
LAYER_1
 10
368.8888525078541
 20
373.5153643271165
 30
0.0
  0
VERTEX
  5
3B2
  8
LAYER_1
 10
368.8888525078541
 20
387.5153643271165
 30
0.0
  0
SEQEND
  5
474
  8
LAYER_1
  0
POLYLINE
  5
87
  8
LAYER_1
 66
     1
 10
0.0
 20
0.0
 30
0.0
  0
VERTEX
  5
3B3
  8
LAYER_1
 10
110.0138525078541
 20
406.5153643271165
 30
0.0
  0
VERTEX
  5
3B4
  8
LAYER_1
 10
124.0138525078541
 20
406.5153643271165
 30
0.0
  0
VERTEX
  5
3B5
  8
LAYER_1
 10
124.0138525078541
 20
392.5153643271165
 30
0.0
  0
VERTEX
  5
3B6
  8
LAYER_1
 10
110.0138525078541
 20
392.5153643271165
 30
0.0
  0
VERTEX
  5
3B7
  8
LAYER_1
 10
110.0138525078541
 20
406.5153643271165
 30
0.0
  0
SEQEND
  5
475
  8
LAYER_1
  0
POLYLINE
  5
88
  8
LAYER_1
 66
     1
 10
0.0
 20
0.0
 30
0.0
  0
VERTEX
  5
3B8
  8
LAYER_1
 10
112.3888525078541
 20
387.5153643271165
 30
0.0
  0
VERTEX
  5
3B9
  8
LAYER_1
 10
126.3888525078541
 20
387.5153643271165
 30
0.0
  0
VERTEX
  5
3BA
  8
LAYER_1
 10
126.3888525078541
 20
373.5153643271165
 30
0.0
  0
VERTEX
  5
3BB
  8
LAYER_1
 10
112.3888525078541
 20
373.5153643271165
 30
0.0
  0
VERTEX
  5
3BC
  8
LAYER_1
 10
112.3888525078541
 20
387.5153643271165
 30
0.0
  0
SEQEND
  5
476
  8
LAYER_1
  0
POLYLINE
  5
89
  8
LAYER_1
  6
BYBLOCK
 66
     1
 10
0.0
 20
0.0
 30
0.0
 70
     1
  0
VERTEX
  5
3BD
  8
LAYER_1
  6
BYBLOCK
 10
105.7888525078541
 20
386.7653643271165
 30
0.0
  0
VERTEX
  5
3BE
  8
LAYER_1
  6
BYBLOCK
 10
105.7888525078541
 20
372.7653643271165
 30
0.0
  0
VERTEX
  5
3BF
  8
LAYER_1
  6
BYBLOCK
 10
109.0888525078541
 20
372.7653643271165
 30
0.0
  0
VERTEX
  5
3C0
  8
LAYER_1
  6
BYBLOCK
 10
109.0888525078541
 20
386.7653643271165
 30
0.0
  0
SEQEND
  5
477
  8
LAYER_1
  6
BYBLOCK
  0
POLYLINE
  5
8A
  8
LAYER_1
  6
BYBLOCK
 66
     1
 10
0.0
 20
0.0
 30
0.0
 70
     1
  0
VERTEX
  5
3C1
  8
LAYER_1
  6
BYBLOCK
 10
129.6888525078541
 20
386.7653643271165
 30
0.0
  0
VERTEX
  5
3C2
  8
LAYER_1
  6
BYBLOCK
 10
129.6888525078541
 20
372.7653643271165
 30
0.0
  0
VERTEX
  5
3C3
  8
LAYER_1
  6
BYBLOCK
 10
132.9888525078541
 20
372.7653643271165
 30
0.0
  0
VERTEX
  5
3C4
  8
LAYER_1
  6
BYBLOCK
 10
132.9888525078541
 20
386.7653643271165
 30
0.0
  0
SEQEND
  5
478
  8
LAYER_1
  6
BYBLOCK
  0
POLYLINE
  5
8B
  8
LAYER_1
 66
     1
 10
0.0
 20
0.0
 30
0.0
  0
VERTEX
  5
3C5
  8
LAYER_1
 10
357.0138525078541
 20
406.5153643271165
 30
0.0
  0
VERTEX
  5
3C6
  8
LAYER_1
 10
371.0138525078541
 20
406.5153643271165
 30
0.0
  0
VERTEX
  5
3C7
  8
LAYER_1
 10
371.0138525078541
 20
392.5153643271165
 30
0.0
  0
VERTEX
  5
3C8
  8
LAYER_1
 10
357.0138525078541
 20
392.5153643271165
 30
0.0
  0
VERTEX
  5
3C9
  8
LAYER_1
 10
357.0138525078541
 20
406.5153643271165
 30
0.0
  0
SEQEND
  5
479
  8
LAYER_1
  0
POLYLINE
  5
8C
  8
LAYER_1
  6
BYBLOCK
 66
     1
 10
0.0
 20
0.0
 30
0.0
 70
     1
  0
VERTEX
  5
3CA
  8
LAYER_1
  6
BYBLOCK
 10
350.4138525078541
 20
405.7653643271165
 30
0.0
  0
VERTEX
  5
3CB
  8
LAYER_1
  6
BYBLOCK
 10
350.4138525078541
 20
391.7653643271165
 30
0.0
  0
VERTEX
  5
3CC
  8
LAYER_1
  6
BYBLOCK
 10
353.7138525078541
 20
391.7653643271165
 30
0.0
  0
VERTEX
  5
3CD
  8
LAYER_1
  6
BYBLOCK
 10
353.7138525078541
 20
405.7653643271165
 30
0.0
  0
SEQEND
  5
47A
  8
LAYER_1
  6
BYBLOCK
  0
POLYLINE
  5
8D
  8
LAYER_1
  6
BYBLOCK
 66
     1
 10
0.0
 20
0.0
 30
0.0
 70
     1
  0
VERTEX
  5
3CE
  8
LAYER_1
  6
BYBLOCK
 10
374.3138525078541
 20
405.7653643271165
 30
0.0
  0
VERTEX
  5
3CF
  8
LAYER_1
  6
BYBLOCK
 10
374.3138525078541
 20
391.7653643271165
 30
0.0
  0
VERTEX
  5
3D0
  8
LAYER_1
  6
BYBLOCK
 10
377.6138525078541
 20
391.7653643271165
 30
0.0
  0
VERTEX
  5
3D1
  8
LAYER_1
  6
BYBLOCK
 10
377.6138525078541
 20
405.7653643271165
 30
0.0
  0
SEQEND
  5
47B
  8
LAYER_1
  6
BYBLOCK
  0
POLYLINE
  5
8E
  8
LAYER_1
 66
     1
 10
0.0
 20
0.0
 30
0.0
  0
VERTEX
  5
3D2
  8
LAYER_1
 10
136.1388525078541
 20
406.5153643271165
 30
0.0
  0
VERTEX
  5
3D3
  8
LAYER_1
 10
150.1388525078541
 20
406.5153643271165
 30
0.0
  0
VERTEX
  5
3D4
  8
LAYER_1
 10
150.1388525078541
 20
392.5153643271165
 30
0.0
  0
VERTEX
  5
3D5
  8
LAYER_1
 10
136.1388525078541
 20
392.5153643271165
 30
0.0
  0
VERTEX
  5
3D6
  8
LAYER_1
 10
136.1388525078541
 20
406.5153643271165
 30
0.0
  0
SEQEND
  5
47C
  8
LAYER_1
  0
POLYLINE
  5
8F
  8
LAYER_1
 66
     1
 10
0.0
 20
0.0
 30
0.0
  0
VERTEX
  5
3D7
  8
LAYER_1
 10
155.1388525078541
 20
406.5153643271165
 30
0.0
  0
VERTEX
  5
3D8
  8
LAYER_1
 10
169.1388525078541
 20
406.5153643271165
 30
0.0
  0
VERTEX
  5
3D9
  8
LAYER_1
 10
169.1388525078541
 20
392.5153643271165
 30
0.0
  0
VERTEX
  5
3DA
  8
LAYER_1
 10
155.1388525078541
 20
392.5153643271165
 30
0.0
  0
VERTEX
  5
3DB
  8
LAYER_1
 10
155.1388525078541
 20
406.5153643271165
 30
0.0
  0
SEQEND
  5
47D
  8
LAYER_1
  0
POLYLINE
  5
90
  8
LAYER_1
 66
     1
 10
0.0
 20
0.0
 30
0.0
  0
VERTEX
  5
3DC
  8
LAYER_1
 10
174.1388525078541
 20
406.5153643271165
 30
0.0
  0
VERTEX
  5
3DD
  8
LAYER_1
 10
188.1388525078541
 20
406.5153643271165
 30
0.0
  0
VERTEX
  5
3DE
  8
LAYER_1
 10
188.1388525078541
 20
392.5153643271165
 30
0.0
  0
VERTEX
  5
3DF
  8
LAYER_1
 10
174.1388525078541
 20
392.5153643271165
 30
0.0
  0
VERTEX
  5
3E0
  8
LAYER_1
 10
174.1388525078541
 20
406.5153643271165
 30
0.0
  0
SEQEND
  5
47E
  8
LAYER_1
  0
POLYLINE
  5
91
  8
LAYER_1
 66
     1
 10
0.0
 20
0.0
 30
0.0
  0
VERTEX
  5
3E1
  8
LAYER_1
 10
193.1388525078541
 20
406.5153643271165
 30
0.0
  0
VERTEX
  5
3E2
  8
LAYER_1
 10
207.1388525078541
 20
406.5153643271165
 30
0.0
  0
VERTEX
  5
3E3
  8
LAYER_1
 10
207.1388525078541
 20
392.5153643271165
 30
0.0
  0
VERTEX
  5
3E4
  8
LAYER_1
 10
193.1388525078541
 20
392.5153643271165
 30
0.0
  0
VERTEX
  5
3E5
  8
LAYER_1
 10
193.1388525078541
 20
406.5153643271165
 30
0.0
  0
SEQEND
  5
47F
  8
LAYER_1
  0
POLYLINE
  5
92
  8
LAYER_1
 66
     1
 10
0.0
 20
0.0
 30
0.0
  0
VERTEX
  5
3E6
  8
LAYER_1
 10
212.1388525078541
 20
406.5153643271165
 30
0.0
  0
VERTEX
  5
3E7
  8
LAYER_1
 10
226.1388525078541
 20
406.5153643271165
 30
0.0
  0
VERTEX
  5
3E8
  8
LAYER_1
 10
226.1388525078541
 20
392.5153643271165
 30
0.0
  0
VERTEX
  5
3E9
  8
LAYER_1
 10
212.1388525078541
 20
392.5153643271165
 30
0.0
  0
VERTEX
  5
3EA
  8
LAYER_1
 10
212.1388525078541
 20
406.5153643271165
 30
0.0
  0
SEQEND
  5
480
  8
LAYER_1
  0
POLYLINE
  5
93
  8
LAYER_1
 66
     1
 10
0.0
 20
0.0
 30
0.0
  0
VERTEX
  5
3EB
  8
LAYER_1
 10
231.1388525078541
 20
406.5153643271165
 30
0.0
  0
VERTEX
  5
3EC
  8
LAYER_1
 10
245.1388525078541
 20
406.5153643271165
 30
0.0
  0
VERTEX
  5
3ED
  8
LAYER_1
 10
245.1388525078541
 20
392.5153643271165
 30
0.0
  0
VERTEX
  5
3EE
  8
LAYER_1
 10
231.1388525078541
 20
392.5153643271165
 30
0.0
  0
VERTEX
  5
3EF
  8
LAYER_1
 10
231.1388525078541
 20
406.5153643271165
 30
0.0
  0
SEQEND
  5
481
  8
LAYER_1
  0
POLYLINE
  5
94
  8
LAYER_1
 66
     1
 10
0.0
 20
0.0
 30
0.0
  0
VERTEX
  5
3F0
  8
LAYER_1
 10
250.1388525078541
 20
406.5153643271165
 30
0.0
  0
VERTEX
  5
3F1
  8
LAYER_1
 10
264.1388525078542
 20
406.5153643271165
 30
0.0
  0
VERTEX
  5
3F2
  8
LAYER_1
 10
264.1388525078542
 20
392.5153643271165
 30
0.0
  0
VERTEX
  5
3F3
  8
LAYER_1
 10
250.1388525078541
 20
392.5153643271165
 30
0.0
  0
VERTEX
  5
3F4
  8
LAYER_1
 10
250.1388525078541
 20
406.5153643271165
 30
0.0
  0
SEQEND
  5
482
  8
LAYER_1
  0
POLYLINE
  5
95
  8
LAYER_1
 66
     1
 10
0.0
 20
0.0
 30
0.0
  0
VERTEX
  5
3F5
  8
LAYER_1
 10
269.1388525078542
 20
406.5153643271165
 30
0.0
  0
VERTEX
  5
3F6
  8
LAYER_1
 10
283.1388525078542
 20
406.5153643271165
 30
0.0
  0
VERTEX
  5
3F7
  8
LAYER_1
 10
283.1388525078542
 20
392.5153643271165
 30
0.0
  0
VERTEX
  5
3F8
  8
LAYER_1
 10
269.1388525078542
 20
392.5153643271165
 30
0.0
  0
VERTEX
  5
3F9
  8
LAYER_1
 10
269.1388525078542
 20
406.5153643271165
 30
0.0
  0
SEQEND
  5
483
  8
LAYER_1
  0
POLYLINE
  5
96
  8
LAYER_1
 66
     1
 10
0.0
 20
0.0
 30
0.0
  0
VERTEX
  5
3FA
  8
LAYER_1
 10
288.1388525078542
 20
406.5153643271165
 30
0.0
  0
VERTEX
  5
3FB
  8
LAYER_1
 10
302.1388525078542
 20
406.5153643271165
 30
0.0
  0
VERTEX
  5
3FC
  8
LAYER_1
 10
302.1388525078542
 20
392.5153643271165
 30
0.0
  0
VERTEX
  5
3FD
  8
LAYER_1
 10
288.1388525078542
 20
392.5153643271165
 30
0.0
  0
VERTEX
  5
3FE
  8
LAYER_1
 10
288.1388525078542
 20
406.5153643271165
 30
0.0
  0
SEQEND
  5
484
  8
LAYER_1
  0
POLYLINE
  5
97
  8
LAYER_1
 66
     1
 10
0.0
 20
0.0
 30
0.0
  0
VERTEX
  5
3FF
  8
LAYER_1
 10
307.1388525078542
 20
406.5153643271165
 30
0.0
  0
VERTEX
  5
400
  8
LAYER_1
 10
321.1388525078542
 20
406.5153643271165
 30
0.0
  0
VERTEX
  5
401
  8
LAYER_1
 10
321.1388525078542
 20
392.5153643271165
 30
0.0
  0
VERTEX
  5
402
  8
LAYER_1
 10
307.1388525078542
 20
392.5153643271165
 30
0.0
  0
VERTEX
  5
403
  8
LAYER_1
 10
307.1388525078542
 20
406.5153643271165
 30
0.0
  0
SEQEND
  5
485
  8
LAYER_1
  0
POLYLINE
  5
98
  8
LAYER_1
 66
     1
 10
0.0
 20
0.0
 30
0.0
  0
VERTEX
  5
404
  8
LAYER_1
 10
326.1388525078541
 20
406.5153643271165
 30
0.0
  0
VERTEX
  5
405
  8
LAYER_1
 10
340.1388525078541
 20
406.5153643271165
 30
0.0
  0
VERTEX
  5
406
  8
LAYER_1
 10
340.1388525078541
 20
392.5153643271165
 30
0.0
  0
VERTEX
  5
407
  8
LAYER_1
 10
326.1388525078541
 20
392.5153643271165
 30
0.0
  0
VERTEX
  5
408
  8
LAYER_1
 10
326.1388525078541
 20
406.5153643271165
 30
0.0
  0
SEQEND
  5
486
  8
LAYER_1
  0
POLYLINE
  5
99
  8
LAYER_1
 66
     1
 10
0.0
 20
0.0
 30
0.0
  0
VERTEX
  5
409
  8
LAYER_1
 10
102.8888525078541
 20
368.5153643271165
 30
0.0
  0
VERTEX
  5
40A
  8
LAYER_1
 10
116.8888525078541
 20
368.5153643271165
 30
0.0
  0
VERTEX
  5
40B
  8
LAYER_1
 10
116.8888525078541
 20
354.5153643271165
 30
0.0
  0
VERTEX
  5
40C
  8
LAYER_1
 10
102.8888525078541
 20
354.5153643271165
 30
0.0
  0
VERTEX
  5
40D
  8
LAYER_1
 10
102.8888525078541
 20
368.5153643271165
 30
0.0
  0
SEQEND
  5
487
  8
LAYER_1
  0
POLYLINE
  5
9A
  8
LAYER_1
 66
     1
 10
0.0
 20
0.0
 30
0.0
  0
VERTEX
  5
40E
  8
LAYER_1
 10
121.8888525078541
 20
368.5153643271165
 30
0.0
  0
VERTEX
  5
40F
  8
LAYER_1
 10
135.8888525078541
 20
368.5153643271165
 30
0.0
  0
VERTEX
  5
410
  8
LAYER_1
 10
135.8888525078541
 20
354.5153643271165
 30
0.0
  0
VERTEX
  5
411
  8
LAYER_1
 10
121.8888525078541
 20
354.5153643271165
 30
0.0
  0
VERTEX
  5
412
  8
LAYER_1
 10
121.8888525078541
 20
368.5153643271165
 30
0.0
  0
SEQEND
  5
488
  8
LAYER_1
  0
POLYLINE
  5
9B
  8
LAYER_1
 66
     1
 10
0.0
 20
0.0
 30
0.0
  0
VERTEX
  5
413
  8
LAYER_1
 10
143.2638525078541
 20
368.5153643271165
 30
0.0
  0
VERTEX
  5
414
  8
LAYER_1
 10
157.2638525078541
 20
368.5153643271165
 30
0.0
  0
VERTEX
  5
415
  8
LAYER_1
 10
157.2638525078541
 20
354.5153643271165
 30
0.0
  0
VERTEX
  5
416
  8
LAYER_1
 10
143.2638525078541
 20
354.5153643271165
 30
0.0
  0
VERTEX
  5
417
  8
LAYER_1
 10
143.2638525078541
 20
368.5153643271165
 30
0.0
  0
SEQEND
  5
489
  8
LAYER_1
  0
POLYLINE
  5
9C
  8
LAYER_1
 66
     1
 10
0.0
 20
0.0
 30
0.0
  0
VERTEX
  5
418
  8
LAYER_1
 10
214.5138525078542
 20
368.5153643271165
 30
0.0
  0
VERTEX
  5
419
  8
LAYER_1
 10
228.5138525078542
 20
368.5153643271165
 30
0.0
  0
VERTEX
  5
41A
  8
LAYER_1
 10
228.5138525078542
 20
354.5153643271165
 30
0.0
  0
VERTEX
  5
41B
  8
LAYER_1
 10
214.5138525078542
 20
354.5153643271165
 30
0.0
  0
VERTEX
  5
41C
  8
LAYER_1
 10
214.5138525078542
 20
368.5153643271165
 30
0.0
  0
SEQEND
  5
48A
  8
LAYER_1
  0
POLYLINE
  5
9D
  8
LAYER_1
  6
BYBLOCK
 66
     1
 10
0.0
 20
0.0
 30
0.0
 70
     1
  0
VERTEX
  5
41D
  8
LAYER_1
  6
BYBLOCK
 10
172.2139011977264
 20
367.7653643271165
 30
0.0
  0
VERTEX
  5
41E
  8
LAYER_1
  6
BYBLOCK
 10
172.2139011977264
 20
353.7653643271165
 30
0.0
  0
VERTEX
  5
41F
  8
LAYER_1
  6
BYBLOCK
 10
175.5139011977264
 20
353.7653643271165
 30
0.0
  0
VERTEX
  5
420
  8
LAYER_1
  6
BYBLOCK
 10
175.5139011977264
 20
367.7653643271165
 30
0.0
  0
SEQEND
  5
48B
  8
LAYER_1
  6
BYBLOCK
  0
POLYLINE
  5
9E
  8
LAYER_1
  6
BYBLOCK
 66
     1
 10
0.0
 20
0.0
 30
0.0
 70
     1
  0
VERTEX
  5
421
  8
LAYER_1
  6
BYBLOCK
 10
267.513896897554
 20
367.7653643271165
 30
0.0
  0
VERTEX
  5
422
  8
LAYER_1
  6
BYBLOCK
 10
267.513896897554
 20
353.7653643271165
 30
0.0
  0
VERTEX
  5
423
  8
LAYER_1
  6
BYBLOCK
 10
270.8138968975541
 20
353.7653643271165
 30
0.0
  0
VERTEX
  5
424
  8
LAYER_1
  6
BYBLOCK
 10
270.8138968975541
 20
367.7653643271165
 30
0.0
  0
SEQEND
  5
48C
  8
LAYER_1
  6
BYBLOCK
  0
POLYLINE
  5
9F
  8
LAYER_1
 66
     1
 10
0.0
 20
0.0
 30
0.0
  0
VERTEX
  5
425
  8
LAYER_1
 10
214.5138525078542
 20
368.5153643271165
 30
0.0
  0
VERTEX
  5
426
  8
LAYER_1
 10
228.5138525078542
 20
368.5153643271165
 30
0.0
  0
VERTEX
  5
427
  8
LAYER_1
 10
228.5138525078542
 20
354.5153643271165
 30
0.0
  0
VERTEX
  5
428
  8
LAYER_1
 10
214.5138525078542
 20
354.5153643271165
 30
0.0
  0
VERTEX
  5
429
  8
LAYER_1
 10
214.5138525078542
 20
368.5153643271165
 30
0.0
  0
SEQEND
  5
48D
  8
LAYER_1
  0
POLYLINE
  5
A0
  8
LAYER_1
  6
BYBLOCK
 66
     1
 10
0.0
 20
0.0
 30
0.0
 70
     1
  0
VERTEX
  5
42A
  8
LAYER_1
  6
BYBLOCK
 10
172.2139011977264
 20
367.7653643271165
 30
0.0
  0
VERTEX
  5
42B
  8
LAYER_1
  6
BYBLOCK
 10
172.2139011977264
 20
353.7653643271165
 30
0.0
  0
VERTEX
  5
42C
  8
LAYER_1
  6
BYBLOCK
 10
175.5139011977264
 20
353.7653643271165
 30
0.0
  0
VERTEX
  5
42D
  8
LAYER_1
  6
BYBLOCK
 10
175.5139011977264
 20
367.7653643271165
 30
0.0
  0
SEQEND
  5
48E
  8
LAYER_1
  6
BYBLOCK
  0
POLYLINE
  5
A1
  8
LAYER_1
  6
BYBLOCK
 66
     1
 10
0.0
 20
0.0
 30
0.0
 70
     1
  0
VERTEX
  5
42E
  8
LAYER_1
  6
BYBLOCK
 10
267.513896897554
 20
367.7653643271165
 30
0.0
  0
VERTEX
  5
42F
  8
LAYER_1
  6
BYBLOCK
 10
267.513896897554
 20
353.7653643271165
 30
0.0
  0
VERTEX
  5
430
  8
LAYER_1
  6
BYBLOCK
 10
270.8138968975541
 20
353.7653643271165
 30
0.0
  0
VERTEX
  5
431
  8
LAYER_1
  6
BYBLOCK
 10
270.8138968975541
 20
367.7653643271165
 30
0.0
  0
SEQEND
  5
48F
  8
LAYER_1
  6
BYBLOCK
  0
POLYLINE
  5
A2
  8
LAYER_1
 66
     1
 10
0.0
 20
0.0
 30
0.0
  0
VERTEX
  5
432
  8
LAYER_1
 10
285.7638525078542
 20
368.5153643271165
 30
0.0
  0
VERTEX
  5
433
  8
LAYER_1
 10
299.7638525078542
 20
368.5153643271165
 30
0.0
  0
VERTEX
  5
434
  8
LAYER_1
 10
299.7638525078542
 20
354.5153643271165
 30
0.0
  0
VERTEX
  5
435
  8
LAYER_1
 10
285.7638525078542
 20
354.5153643271165
 30
0.0
  0
VERTEX
  5
436
  8
LAYER_1
 10
285.7638525078542
 20
368.5153643271165
 30
0.0
  0
SEQEND
  5
490
  8
LAYER_1
  0
POLYLINE
  5
A3
  8
LAYER_1
 66
     1
 10
0.0
 20
0.0
 30
0.0
  0
VERTEX
  5
437
  8
LAYER_1
 10
309.5138525078542
 20
368.5153643271165
 30
0.0
  0
VERTEX
  5
438
  8
LAYER_1
 10
323.5138525078542
 20
368.5153643271165
 30
0.0
  0
VERTEX
  5
439
  8
LAYER_1
 10
323.5138525078542
 20
354.5153643271165
 30
0.0
  0
VERTEX
  5
43A
  8
LAYER_1
 10
309.5138525078542
 20
354.5153643271165
 30
0.0
  0
VERTEX
  5
43B
  8
LAYER_1
 10
309.5138525078542
 20
368.5153643271165
 30
0.0
  0
SEQEND
  5
491
  8
LAYER_1
  0
POLYLINE
  5
A4
  8
LAYER_1
 66
     1
 10
0.0
 20
0.0
 30
0.0
  0
VERTEX
  5
43C
  8
LAYER_1
 10
330.8888525078542
 20
368.5153643271165
 30
0.0
  0
VERTEX
  5
43D
  8
LAYER_1
 10
344.8888525078541
 20
368.5153643271165
 30
0.0
  0
VERTEX
  5
43E
  8
LAYER_1
 10
344.8888525078541
 20
354.5153643271165
 30
0.0
  0
VERTEX
  5
43F
  8
LAYER_1
 10
330.8888525078542
 20
354.5153643271165
 30
0.0
  0
VERTEX
  5
440
  8
LAYER_1
 10
330.8888525078542
 20
368.5153643271165
 30
0.0
  0
SEQEND
  5
492
  8
LAYER_1
  0
POLYLINE
  5
A5
  8
LAYER_1
 66
     1
 10
0.0
 20
0.0
 30
0.0
  0
VERTEX
  5
441
  8
LAYER_1
 10
349.8888525078541
 20
368.5153643271165
 30
0.0
  0
VERTEX
  5
442
  8
LAYER_1
 10
363.8888525078541
 20
368.5153643271165
 30
0.0
  0
VERTEX
  5
443
  8
LAYER_1
 10
363.8888525078541
 20
354.5153643271165
 30
0.0
  0
VERTEX
  5
444
  8
LAYER_1
 10
349.8888525078541
 20
354.5153643271165
 30
0.0
  0
VERTEX
  5
445
  8
LAYER_1
 10
349.8888525078541
 20
368.5153643271165
 30
0.0
  0
SEQEND
  5
493
  8
LAYER_1
  0
POLYLINE
  5
A6
  8
LAYER_1
 66
     1
 10
0.0
 20
0.0
 30
0.0
  0
VERTEX
  5
446
  8
LAYER_1
 10
368.8888525078541
 20
368.5153643271165
 30
0.0
  0
VERTEX
  5
447
  8
LAYER_1
 10
382.8888525078541
 20
368.5153643271165
 30
0.0
  0
VERTEX
  5
448
  8
LAYER_1
 10
382.8888525078541
 20
354.5153643271165
 30
0.0
  0
VERTEX
  5
449
  8
LAYER_1
 10
368.8888525078541
 20
354.5153643271165
 30
0.0
  0
VERTEX
  5
44A
  8
LAYER_1
 10
368.8888525078541
 20
368.5153643271165
 30
0.0
  0
SEQEND
  5
494
  8
LAYER_1
  0
LINE
  5
A7
  8
LAYER_1
  6
BYBLOCK
 10
97.88884950785402
 20
453.5153343271163
 30
0.0
 11
387.888855507854
 21
453.5153343271163
 31
0.0
  0
LINE
  5
A8
  8
LAYER_1
  6
BYBLOCK
 10
387.888855507854
 20
345.5153383271163
 30
0.0
 11
97.88884950785402
 21
345.5153383271163
 31
0.0
  0
ENDSEC
  0
EOF
